<svg xmlns="http://www.w3.org/2000/svg">
  <defs>
    <symbol id="icon-arm" viewBox="0 0 100 125">
      <path
        d="M84.338,47.901c-5.649,1.24-9.426,4.713-11.873,8.152c-2.015-1.593-5.723-3.643-12.077-4.498  c-5.192-0.701-9.023,0.254-11.767,1.676c0.08-0.57,0.153-1.148,0.193-1.751c0.843-12.708,3.552-22.64,4.58-26.042l1.5-0.084  c-0.019,0.834,0.089,1.668,0.234,2.392c-0.018,0.232-0.001,0.47,0.068,0.707c0.163,0.558,1.697,5.461,5.571,5.862  c0.326,0.034,0.645,0.05,0.955,0.05c5.553,0,8.686-5.18,10.41-8.033c2.13-3.521,4.149-7.191,3.431-9.977  c-0.676-2.621-4.138-4.295-8.254-6.059L66.43,9.919c-3.664-1.606-7.382-2.604-7.739-2.698c-3.007-0.933-6.936-1.852-8.703-0.996  c-1.677,0.813-3.172,2.991-3.7,3.822c-0.673,0.634-2.996,2.85-5.802,5.838l-0.439,0.466c-3.481,3.693-9.963,10.568-16.657,22.99  c-6.47,12.006-8.323,30.596-8.613,33.978c-0.49,0.775-1.463,2.426-2.158,4.35c-1.309,3.622,1.145,5.812,2.61,7.121  c0.297,0.266,0.589,0.523,0.838,0.786c1.874,1.981,6.136,2.506,7.673,2.634c1.905,0.896,11.018,4.799,27.003,5.728  c2.007,0.117,3.861,0.169,5.577,0.169c15.732,0,19.667-4.453,20.099-5.013c0.675-0.875,0.537-2.162-0.338-2.836  c-0.875-0.676-2.104-0.542-2.779,0.332c-0.041,0.043-4.226,4.41-22.326,3.354c-16.768-0.975-25.711-5.437-25.796-5.48  c-0.004-0.002-0.008-0.003-0.011-0.004c-0.073-0.037-0.152-0.062-0.23-0.09c-0.049-0.018-0.097-0.042-0.146-0.055  c-0.028-0.008-0.058-0.009-0.086-0.015c-0.104-0.024-0.208-0.044-0.312-0.051c-0.002,0-0.005-0.001-0.007-0.001  c-2.043-0.125-4.769-0.739-5.414-1.421c-0.322-0.34-0.695-0.677-1.08-1.021c-1.601-1.429-1.841-1.871-1.513-2.779  c0.76-2.104,1.98-3.885,1.991-3.901c0.023-0.033,0.037-0.07,0.058-0.104c0.041-0.067,0.081-0.134,0.114-0.206  c0.025-0.055,0.043-0.111,0.063-0.167c0.022-0.063,0.044-0.125,0.06-0.191c0.016-0.067,0.025-0.134,0.035-0.201  c0.006-0.041,0.018-0.08,0.021-0.122c0.016-0.206,1.609-20.687,8.188-32.897c6.444-11.959,12.69-18.584,16.047-22.144l0.443-0.471  c3.172-3.376,5.782-5.808,5.808-5.832c0.003-0.003,0.006-0.007,0.009-0.01c0.016-0.015,0.029-0.034,0.044-0.05  c0.101-0.101,0.187-0.21,0.262-0.326c0.01-0.016,0.025-0.027,0.034-0.043c0.574-0.945,1.543-2.155,2.091-2.492  c0.811-0.102,3.501,0.438,5.909,1.186c0.015,0.005,0.029,0.005,0.044,0.009c0.015,0.004,0.029,0.012,0.044,0.016  c0.036,0.009,3.692,0.973,7.179,2.501l0.908,0.392c1.514,0.648,5.535,2.372,5.957,3.381c0.358,1.389-2.154,5.542-2.979,6.907  c-1.974,3.264-4.172,6.424-7.531,6.074c-0.656-0.068-1.392-1.174-1.845-2.213c-0.01-0.041-0.012-0.082-0.024-0.124  c-0.28-0.937-0.439-2.075-0.408-2.74c0.385,0.141,1.048,0.462,2.073,1.191c0.901,0.64,2.148,0.428,2.788-0.472  c0.641-0.9,0.429-2.149-0.472-2.789c-1.472-1.046-3.468-2.244-5.294-2.017l-6.206,0.349c-0.811,0.046-1.514,0.577-1.778,1.345  c-0.167,0.485-4.109,12.06-5.19,28.348c-0.193,2.902-0.976,5.337-1.974,7.33c-0.07,0.123-0.115,0.209-0.13,0.238  c-0.008,0.016-0.011,0.033-0.019,0.049c-2.248,4.306-5.462,6.446-5.655,6.572c-0.932,0.594-1.205,1.83-0.611,2.762  c0.382,0.598,1.028,0.925,1.688,0.925c0.368,0,0.74-0.102,1.073-0.314c0.25-0.159,4.379-2.857,7.161-8.311  c0.477-0.82,4.007-6.223,13.498-4.947c6.088,0.819,9.198,2.863,10.516,4.011c-1.304,2.582-1.836,4.61-1.889,4.822  c-0.27,1.071,0.38,2.158,1.451,2.428c0.164,0.042,0.328,0.061,0.49,0.061c0.895,0,1.709-0.605,1.938-1.512  c0.028-0.113,2.97-11.358,12.835-13.522c1.079-0.237,1.762-1.303,1.524-2.382C86.484,48.348,85.422,47.663,84.338,47.901z" />
      <path
        d="M66.612,75.361c-0.46,0.34-11.413,8.203-23.9-1.415c-0.876-0.674-2.13-0.512-2.806,0.364  c-0.674,0.875-0.511,2.131,0.364,2.805c5.464,4.208,10.755,5.546,15.276,5.546c7.844,0,13.369-4.028,13.456-4.093  c0.882-0.66,1.062-1.908,0.404-2.792S67.495,74.708,66.612,75.361z" />
      <text x="0" y="115" fill="#000000" font-size="5px" font-weight="bold"
        font-family="'Helvetica Neue', Helvetica, Arial-Unicode, Arial, Sans-serif">Created by Alina
        Oleynik</text>
      <text x="0" y="120" fill="#000000" font-size="5px" font-weight="bold"
        font-family="'Helvetica Neue', Helvetica, Arial-Unicode, Arial, Sans-serif">from the Noun
        Project</text>
    </symbol>
    <symbol id="icon-bread" viewBox="0 0 90 112.5">
      <g>
        <path
          d="M81.847,30.967c-0.046-0.303-0.127-0.598-0.193-0.898c-0.07-0.31-0.132-0.621-0.223-0.926   c-0.129-0.435-0.294-0.861-0.465-1.286c-0.054-0.131-0.102-0.262-0.16-0.393c-2.249-5.144-7.591-9.469-14.685-12.133   c-3.488-1.398-7.436-2.488-11.769-3.176c-4.943-0.914-9.015-1.404-15.601-1.135c-17.719,0.724-30.999,9.6-30.891,20.646   c0.036,3.707,1.288,6.89,3.709,9.286l0.265,28.997c0.017,1.894,0.92,3.685,2.402,4.846c0.294,0.384,0.705,0.677,1.197,0.821   l10.286,2.998c0.154,0.044,0.311,0.069,0.468,0.079c0.456,0.104,0.925,0.171,1.412,0.171h44.267c3.496,0,6.342-2.845,6.342-6.342   L78.206,42.8c2.52-2.684,3.796-6.012,3.796-9.895C82.002,32.252,81.945,31.607,81.847,30.967z M17.263,71.259   c-0.493-0.289-0.789-0.795-0.795-1.354l-0.265-28.997c-0.015-1.67-0.93-2.631-1.258-2.975c-1.624-1.714-2.425-3.779-2.451-6.314   c-0.063-6.483,6.952-12.15,17.072-14.646c-7.371,3.749-12.109,9.492-12.109,15.931c0,3.803,1.274,7.087,3.797,9.629v29.951   l-3.821-1.114C17.379,71.331,17.322,71.294,17.263,71.259z M74.671,39.789c-0.411,0.416-1.101,1.342-1.101,2.88v29.853   c0,0.941-0.766,1.707-1.707,1.707H27.597c-0.941,0-1.707-0.766-1.707-1.707V42.534c0-1.705-0.936-2.693-1.266-3.041   c-1.702-1.811-2.531-3.966-2.531-6.587c0-8.565,12.657-15.802,27.638-15.802c4.588,0,8.954,0.685,12.809,1.873   c8.191,2.889,13.813,7.551,14.701,12.544c0.073,0.458,0.127,0.919,0.127,1.386C77.367,35.689,76.482,37.942,74.671,39.789z" />
      </g>
      <text x="0" y="105" fill="#000000" font-size="5px" font-weight="bold"
        font-family="'Helvetica Neue', Helvetica, Arial-Unicode, Arial, Sans-serif">Created by T Com</text>
      <text x="0" y="110" fill="#000000" font-size="5px" font-weight="bold"
        font-family="'Helvetica Neue', Helvetica, Arial-Unicode, Arial, Sans-serif">from the Noun
        Project</text>
    </symbol>
    <symbol id="icon-butter" viewBox="-5.0 -10.0 110.0 135.0">
      <path
        d="m18.059 26.238c0 0.75781-0.61328 1.3672-1.3672 1.3672h-4.9023v4.6797c0 0.75781-0.61328 1.3672-1.3672 1.3672-0.75781 0-1.3711-0.60938-1.3711-1.3672v-6.0469c0-0.75391 0.61328-1.3672 1.3711-1.3672h6.2695c0.75391 0 1.3672 0.61328 1.3672 1.3672zm11.871 3.4609-8.3984 4.4219c-0.32031 0.17188-0.5625 0.46094-0.66797 0.80859-0.10938 0.34375-0.074219 0.71875 0.09375 1.043 0.35547 0.66797 1.1836 0.92188 1.8516 0.57031l8.3984-4.4219c0.66797-0.35156 0.92578-1.1797 0.57031-1.8477-0.35156-0.66797-1.1797-0.92578-1.8477-0.57422zm12.832-0.61328-8.4023 4.4297v0.003906c-0.66797 0.35156-0.92578 1.1797-0.57031 1.8477 0.35156 0.66797 1.1797 0.92578 1.8477 0.57422l8.4023-4.4297c0.66797-0.35547 0.92578-1.1797 0.57422-1.8516-0.35547-0.66797-1.1797-0.92188-1.8516-0.57031zm57.238 35.23v9.0938c0 0.46094-0.23047 0.89062-0.61719 1.1445l-8.3555 5.5-0.011719 0.007812-0.011719 0.003906c-0.046875 0.03125-0.097656 0.058594-0.14844 0.082032l-0.03125 0.015624h0.003906c-0.058594 0.023438-0.11328 0.046876-0.17188 0.0625h-0.015625c-0.054687 0.015626-0.10547 0.027344-0.16016 0.035157l-0.042969 0.007812h0.003906c-0.058594 0.007813-0.12109 0.011719-0.17969 0.011719h-36.859c-0.75781 0-1.3711-0.61328-1.3711-1.3672v-9.0859c-0.074219-0.47656 0.17578-0.94531 0.61328-1.1445l1.3047-0.85938h-41.156c-0.75391 0-1.3672-0.61328-1.3672-1.3672v-5.1836h-2.5273c-4.9102-0.003907-8.8945-3.9805-8.8984-8.8945v-7.5273c0-0.75391 0.61328-1.3672 1.3672-1.3672h2.6484c-0.097656-0.33594-0.14453-0.6875-0.14844-1.0352v-18.957c0.003906-2.082 1.6914-3.7734 3.7734-3.7773h52.176c2.0859 0.003906 3.7734 1.6914 3.7773 3.7773v18.953c0 0.35156-0.050781 0.69922-0.14844 1.0391h1.9219v-20.488c0.003906-1.5195 1.2344-2.75 2.7578-2.75h4.6016c0.91016 0 1.7656 0.44922 2.2773 1.2031l4.0391-1.2734v-0.003906c1.4531-0.45703 3 0.34766 3.4609 1.7969l6.8438 21.645h-0.003906c0.48047 0.22656 0.78906 0.70703 0.78906 1.2383v7.5273c-0.003906 4.9102-3.9844 8.8906-8.8945 8.8945h-2.5273v1.6758h19.922 0.046876c0.36719-0.027344 0.72266 0.11328 0.97656 0.375 0.25781 0.26562 0.38281 0.62891 0.34375 0.99219zm-5.9414 1.3672h-31.875l-2.8711 1.8945-0.058594 0.039063-1.2852 0.84375 31.879-0.003907zm-18.574-41.512v0.0625l6.0938 19.25h4.8594l-6.543-20.691-0.019531-0.007813zm0 19.312h3.2148l-3.2148-10.16zm-7.375 0h4.6328v-19.047c-0.015626-0.16406-0.015626-0.33203 0-0.49609v-0.94922s-0.011719-0.015626-0.019532-0.015626l-4.5977 0.003907zm-60.473 0h52.18c0.56641-0.011719 1.0273-0.46875 1.0352-1.0391v-18.953c-0.007812-0.56641-0.46875-1.0273-1.0352-1.0352h-52.176c-0.57031 0-1.0312 0.46484-1.0312 1.0352v18.953c0 0.57031 0.46094 1.0352 1.0312 1.0391zm1.2539 15.051h72.352c3.3984-0.003906 6.1523-2.7578 6.1562-6.1562v-6.1562h-84.66v6.1562c0.003907 3.3984 2.7578 6.1523 6.1562 6.1562zm49.219 6.5469 2.9062-1.9141h0.003906c0.22266-0.14453 0.48438-0.22656 0.75391-0.22656h14.195v-1.668h-61.801v3.8086zm-3.3359 12.461h34.113v-6.3477h-34.113zm42.488-10.688-5.6289 3.707v5.8086l5.6289-3.707z" />
      <text x="0.0" y="117.5" font-size="5.0" font-weight="bold"
        font-family="Arbeit Regular, Helvetica, Arial-Unicode, Arial, Sans-serif" fill="#000000">Created
        by Ochtavia Asmieza Rizita</text>
      <text x="0.0" y="122.5" font-size="5.0" font-weight="bold"
        font-family="Arbeit Regular, Helvetica, Arial-Unicode, Arial, Sans-serif" fill="#000000">from
        Noun Project</text>
    </symbol>
    <symbol id="icon-calories" viewBox="-5.0 -10.0 110.0 135.0">
      <path
        d="m42.621 11.898c1.7578 1.3711 3.5391 2.9102 4.5039 3.8711 6.668 6.668 11.281 15.562 13.34 25.723l2.1211 10.473 5.2891-9.2812c1.1094-1.9492 1.9375-3.8984 2.6055-5.8867 1.043 1.7344 2.1875 3.3828 3.3164 5.0078 0.83203 1.1992 1.6172 2.3281 2.3555 3.4844 3.3438 5.2227 5.2969 10.441 5.8047 15.516 0.16797 1.6602 0.17188 3.3086 0.019531 4.9062-0.58984 6.1406-3.3125 12.637-7.2852 17.379-3.0234 3.6055-8.1445 7.9023-15.371 7.9062h-0.36719-0.17969c2.5742-5.4062 4.6289-11.988 1.8203-18.191-1.5703-3.4648-4.3164-5.832-6.7383-7.9219l-0.59375-0.51172c-3.3633-2.9219-5.0938-6.1953-5.4453-10.305l-0.64453-7.5312-5.875 4.7617c-4.0234 3.2617-6.8242 6.8945-8.3203 10.801-1.7734 4.6328-1.2305 9.2695 1.6562 14.176 3.5977 6.1133 4.3945 10.066 2.5391 13.387-2.7109-0.90625-5.3945-2.3828-7.8477-4.332-5.6172-4.4609-9.6289-10.82-11.004-17.453-1.3906-6.7148 0.86719-13.445 6.7109-20.004 1.3711-1.5391 2.8789-3.0273 4.4766-4.6055 3.7578-3.7148 7.6445-7.5547 10.207-12.527 2.832-5.4961 3.8242-12.039 2.9141-18.832m-4.1562-6.9062c-0.5625 0-0.93359 0.26953-1.0312 0.90625-0.09375 0.60547 0.085938 1.2188 0.24609 1.8125 1.9219 7 1.8398 14.621-1.5391 21.176-3.2891 6.3789-9.4062 11.023-14.113 16.305-5.8984 6.6172-9.4961 14.543-7.6406 23.484 1.6055 7.7461 6.2695 14.883 12.438 19.781 3.3203 2.6328 7.1641 4.6562 11.301 5.6289 0.078126 0.019531 0.16016 0.027344 0.24219 0.027344 0.30469 0 0.60547-0.13281 0.80469-0.36719 5.3477-6.3242 2.5781-13.285-1.0859-19.516-2.0391-3.4648-2.832-6.8828-1.3672-10.707 1.3945-3.6406 4.1055-6.6914 7.0977-9.1211 0.45703 5.3633 2.8008 9.5039 6.8125 12.988 2.4023 2.0859 4.9961 4.1602 6.3086 7.0625 2.4609 5.4336-0.17187 11.762-2.7109 16.66-0.60156 1.1602-1.1992 2.2266-0.070313 3.0742 1.0352 0.77734 3.3672 0.8125 4.7891 0.8125h0.36719c14.961 0 25.34-15.266 26.648-28.91 0.18359-1.9102 0.16797-3.8125-0.019531-5.6914-0.61719-6.1523-3.0781-12.062-6.418-17.277-3.0898-4.8242-6.9805-9.3164-8.5195-14.836-0.12109-0.4375-0.23438-0.89062-0.51562-1.2461-0.21094-0.26953-0.55078-0.46875-0.88672-0.46875-0.10547 0-0.21094 0.019531-0.30859 0.0625-0.44531 0.19531-0.59766 0.74219-0.69531 1.2188-0.93359 4.5508-1.8828 8.7617-4.2109 12.84-2.2188-10.949-7.1758-20.504-14.434-27.762-1.0391-1.0391-8.6562-7.9336-11.488-7.9336z" />
      <text x="0.0" y="117.5" font-size="5.0" font-weight="bold"
        font-family="Arbeit Regular, Helvetica, Arial-Unicode, Arial, Sans-serif" fill="#000000">Created
        by Lewen Design</text>
      <text x="0.0" y="122.5" font-size="5.0" font-weight="bold"
        font-family="Arbeit Regular, Helvetica, Arial-Unicode, Arial, Sans-serif" fill="#000000">from
        Noun Project</text>
    </symbol>
    <symbol id="icon-cookbook" viewBox="0 0 256 320">
      <title>Kitchen Cook Line</title>
      <path
        d="M220.783,52.244h-10.45V21.383l-3.3-3.3H67.073a28.082,28.082,0,0,0-28.05,28.05V211.777a28.082,28.082,0,0,0,28.05,28.05h153.71l3.3-3.3V55.544ZM76.683,24.683h127.05V52.244h-4.95V32.994l-3.3-3.3H76.683Zm95.442,27.561H69.613a7.975,7.975,0,1,1,0-15.95H192.183v15.95Zm18.958,6.6V84.326l-5.64-5h-4.379l-5.64,5V58.844ZM76.683,233.227h-9.61a21.474,21.474,0,0,1-21.45-21.45V46.133a21.474,21.474,0,0,1,21.45-21.45h3.01v5.011h-.471a14.575,14.575,0,1,0,0,29.15h7.071Zm140.8,0H83.283V58.844h85.542V91.662l5.489,2.469,8.94-7.926,8.94,7.926,5.489-2.469V58.844h19.8Z" />
      <path
        d="M123.041,134.929a33.087,33.087,0,0,1,3.892,4.126c2.149,2.847,2.815,4.411,2.8,8.651l0,0v9.923l3.3,3.3h34.695l3.3-3.3v-9.923l0,0c-.017-4.239.65-5.8,2.8-8.651a33.05,33.05,0,0,1,3.892-4.126c2.67-2.522,5.431-5.13,6.9-9.756,2.057-6.492.727-15.352-5.793-19.727h0c-3.68-2.469-11.149-3.2-17.56.632-2.393-3.487-6.348-6.014-10.256-6.2h-.291c-.143,0-.534,0-.661,0h-.308c-3.907.184-7.862,2.711-10.256,6.2-6.41-3.827-13.879-3.1-17.56-.632-6.521,4.376-7.85,13.237-5.793,19.728C117.61,129.8,120.371,132.407,123.041,134.929Zm41.39,19.4H136.336v-3.5h28.095Zm-38.816-43.406c1.712-1.148,8.038-2.059,12.819,2.608l5.512-1.583c.7-2.867,3.83-5.3,6.02-5.474.246.005.588.005.834,0,2.19.17,5.325,2.608,6.02,5.474l5.512,1.583c4.78-4.665,11.107-3.757,12.819-2.608,3.645,2.446,4.479,8.151,3.179,12.254-.949,2.995-2.8,4.741-5.137,6.951a39.3,39.3,0,0,0-4.628,4.948,17.5,17.5,0,0,0-3.952,9.151h-2.356v-.586l0-.112c0-.089-.187-8.878,6.235-11.828l-2.754-6c-10.153,4.663-10.108,16.788-10.078,17.985v.538h-1.974V129.055h-6.6V144.23h-1.973v-.539c.03-1.2.074-13.321-10.078-17.984l-2.755,6c6.422,2.95,6.238,11.74,6.236,11.814v.711h-2.358a17.5,17.5,0,0,0-3.952-9.151,39.293,39.293,0,0,0-4.628-4.948c-2.34-2.21-4.188-3.956-5.137-6.951C121.137,119.077,121.97,113.372,125.615,110.926Z" />
      <rect x="111.042" y="175.079" width="78.684" height="6.6" />
      <rect x="111.042" y="191.212" width="78.684" height="6.6" />
      <text x="0" y="271" fill="#000000" font-size="5px" font-weight="bold"
        font-family="'Helvetica Neue', Helvetica, Arial-Unicode, Arial, Sans-serif">Created by
        nuengrutai</text>
      <text x="0" y="276" fill="#000000" font-size="5px" font-weight="bold"
        font-family="'Helvetica Neue', Helvetica, Arial-Unicode, Arial, Sans-serif">from the Noun
        Project</text>
    </symbol>
    <symbol id="icon-food-calendar" viewBox="0 0 32 40">
      <g transform="matrix(1,0,0,1,-5323.35,0.703444)">
        <path
          d="M5342.49,5.174L5339.01,5.174L5339.01,4.018C5339.01,3.742 5338.78,3.518 5338.51,3.518C5338.23,3.518 5338.01,3.742 5338.01,4.018L5338.01,5.174L5334.52,5.174L5334.52,4.018C5334.52,3.742 5334.3,3.518 5334.02,3.518C5333.75,3.518 5333.52,3.742 5333.52,4.018L5333.52,5.174L5330.04,5.174L5330.04,4.018C5330.04,3.742 5329.82,3.518 5329.54,3.518C5329.26,3.518 5329.04,3.742 5329.04,4.018L5329.04,5.174L5325.35,5.174C5325.07,5.174 5324.85,5.398 5324.85,5.674L5324.85,26.236C5324.85,26.512 5325.07,26.736 5325.35,26.736L5343.56,26.736C5344.36,27.073 5345.2,27.171 5346.01,26.976C5346.29,26.907 5346.56,26.806 5346.81,26.677C5347.06,26.806 5347.33,26.907 5347.61,26.976C5349.96,27.546 5352.66,25.613 5353.56,22.577C5354.47,19.512 5353.18,16.594 5350.81,16.019C5349.72,15.756 5348.57,16.013 5347.55,16.671C5347.7,15.943 5348.12,14.879 5349.33,14.086C5349.56,13.934 5349.63,13.624 5349.48,13.393C5349.33,13.163 5349.02,13.098 5348.78,13.25C5348.34,13.545 5347.97,13.871 5347.68,14.207L5347.68,5.674C5347.68,5.398 5347.45,5.174 5347.18,5.174L5343.49,5.174L5343.49,4.018C5343.49,3.742 5343.27,3.518 5342.99,3.518C5342.71,3.518 5342.49,3.742 5342.49,4.018L5342.49,5.174ZM5346.95,18.044C5346.55,18.077 5346.14,17.965 5345.81,17.708C5344.96,17.067 5343.98,16.766 5343.05,16.991C5341.15,17.45 5340.3,19.846 5341.02,22.293C5341.49,23.883 5342.53,25.154 5343.72,25.736C5343.72,25.736 5344.05,25.892 5344.32,25.967C5344.8,26.101 5345.29,26.12 5345.78,26.004C5346.05,25.937 5346.31,25.826 5346.54,25.678C5346.7,25.574 5346.91,25.574 5347.08,25.678C5347.31,25.826 5347.57,25.937 5347.85,26.004C5349.76,26.469 5351.86,24.768 5352.6,22.293C5353.32,19.846 5352.47,17.45 5350.57,16.991C5349.64,16.766 5348.66,17.067 5347.82,17.707C5347.62,17.859 5347.4,17.96 5347.16,18.011C5347.12,18.028 5347.08,18.039 5347.03,18.043C5347,18.046 5346.97,18.046 5346.95,18.044ZM5346.68,13.719L5346.68,11.574L5325.85,11.574L5325.85,25.736L5342.01,25.736C5341.15,24.952 5340.44,23.863 5340.06,22.577C5339.15,19.512 5340.44,16.594 5342.82,16.019C5342.96,15.983 5343.11,15.957 5343.26,15.94C5342.65,15.101 5342.53,14.077 5342.9,13.226C5342.96,13.099 5343.07,13.001 5343.2,12.954C5344.3,12.561 5345.67,12.808 5346.64,13.68C5346.65,13.693 5346.66,13.706 5346.68,13.719ZM5338.53,19.788C5338.53,19.512 5338.31,19.288 5338.03,19.288L5334.28,19.288C5334,19.288 5333.78,19.512 5333.78,19.788L5333.78,23.544C5333.78,23.82 5334,24.044 5334.28,24.044L5338.03,24.044C5338.31,24.044 5338.53,23.82 5338.53,23.544L5338.53,19.788ZM5332.41,19.788C5332.41,19.512 5332.19,19.288 5331.91,19.288L5328.15,19.288C5327.88,19.288 5327.65,19.512 5327.65,19.788L5327.65,23.544C5327.65,23.82 5327.88,24.044 5328.15,24.044L5331.91,24.044C5332.19,24.044 5332.41,23.82 5332.41,23.544L5332.41,19.788ZM5337.53,20.288L5337.53,23.044C5337.53,23.044 5334.78,23.044 5334.78,23.044C5334.78,23.044 5334.78,20.288 5334.78,20.288L5337.53,20.288ZM5331.41,20.288L5331.41,23.044C5331.41,23.044 5328.65,23.044 5328.65,23.044C5328.65,23.044 5328.65,20.288 5328.65,20.288L5331.41,20.288ZM5332.41,13.665C5332.41,13.389 5332.19,13.165 5331.91,13.165L5328.15,13.165C5327.88,13.165 5327.65,13.389 5327.65,13.665L5327.65,17.422C5327.65,17.698 5327.88,17.922 5328.15,17.922L5331.91,17.922C5332.19,17.922 5332.41,17.698 5332.41,17.422L5332.41,13.665ZM5338.53,13.665C5338.53,13.389 5338.31,13.165 5338.03,13.165L5334.28,13.165C5334,13.165 5333.78,13.389 5333.78,13.665L5333.78,17.422C5333.78,17.698 5334,17.922 5334.28,17.922L5338.03,17.922C5338.31,17.922 5338.53,17.698 5338.53,17.422L5338.53,13.665ZM5347.82,17.705L5347.81,17.708L5347.82,17.705ZM5331.41,14.165L5331.41,16.922C5331.41,16.922 5328.65,16.922 5328.65,16.922C5328.65,16.922 5328.65,14.165 5328.65,14.165L5331.41,14.165ZM5337.53,14.165L5337.53,16.922C5337.53,16.922 5334.78,16.922 5334.78,16.922C5334.78,16.922 5334.78,14.165 5334.78,14.165L5337.53,14.165ZM5343.75,13.832C5344.49,13.656 5345.35,13.861 5345.97,14.422C5346.55,14.949 5346.78,15.67 5346.61,16.298C5345.87,16.475 5345.01,16.27 5344.39,15.709C5343.81,15.182 5343.58,14.46 5343.75,13.832L5343.75,13.832ZM5343.49,6.174L5343.49,7.902C5343.49,8.178 5343.27,8.402 5342.99,8.402C5342.71,8.402 5342.49,8.178 5342.49,7.902L5342.49,6.174L5339.01,6.174L5339.01,7.902C5339.01,8.178 5338.78,8.402 5338.51,8.402C5338.23,8.402 5338.01,8.178 5338.01,7.902L5338.01,6.174L5334.52,6.174L5334.52,7.902C5334.52,8.178 5334.3,8.402 5334.02,8.402C5333.75,8.402 5333.52,8.178 5333.52,7.902L5333.52,6.174L5330.04,6.174L5330.04,7.902C5330.04,8.178 5329.82,8.402 5329.54,8.402C5329.26,8.402 5329.04,8.178 5329.04,7.902L5329.04,6.174L5325.85,6.174L5325.85,10.574L5346.68,10.574L5346.68,6.174L5343.49,6.174Z" />
      </g>
      <text x="0" y="47" fill="#000000" font-size="5px" font-weight="bold"
        font-family="'Helvetica Neue', Helvetica, Arial-Unicode, Arial, Sans-serif">Created by
        rendicon</text>
      <text x="0" y="52" fill="#000000" font-size="5px" font-weight="bold"
        font-family="'Helvetica Neue', Helvetica, Arial-Unicode, Arial, Sans-serif">from the Noun
        Project</text>
    </symbol>
    <symbol id="icon-grocery-bag" viewBox="-5.0 -10.0 110.0 135.0">
      <path
        d="m14.047 95.312h71.793c0.39453 0 0.75391-0.14453 1.0273-0.38281 0.13281-0.11719 0.24219-0.25391 0.32812-0.39844 0.13281-0.22656 0.20703-0.49219 0.20703-0.77734v-59.082c0-0.74219-0.51172-1.3594-1.2031-1.5234-0.089844-0.67578-0.27344-1.3398-0.53906-1.9766-1.2656-2.9922-4.1133-9.7344-5.293-12.531-0.24219-0.57812-0.33594-1.207-0.26953-1.8281l0.046875-0.42969c0.77734-0.33594 1.3594-1.0703 1.4609-1.9766l0.46875-4.2891c0.14844-1.3398-0.82031-2.5469-2.1641-2.6953l-10.332-1.1328c-1.3398-0.14844-2.543 0.82031-2.6914 2.1641l-0.46875 4.2891c-0.10156 0.90234 0.30469 1.7461 0.99219 2.2422l-0.046875 0.42969c-0.070312 0.62109-0.29297 1.2188-0.65625 1.7266l-3.918 5.5156c-0.32031-5.2109-1.2266-9.543-2.6211-12.566-1.4141-3.0547-3.3828-4.8594-5.6484-5.3008-2.875-0.55469-6.1797 1.1797-9.2812 5.0547-3.6914 4.6055-7.2969 12.289-9.9766 21.641l-3.4102-15.715c-1.293-5.9688-7.1797-9.7578-13.148-8.4609 0 0-0.003906 0.003906-0.007813 0.003906-5.9648 1.293-9.7578 7.1797-8.4609 13.148l2.8203 12.996c-0.35156 0.28516-0.57422 0.72266-0.57422 1.2109v59.082c0 0.86328 0.69922 1.5625 1.5625 1.5625zm46.301-59.082h-44.738v55.957h44.738zm4.8164 55.957h17.426c-3.1172-3.8945-8.7148-10.895-8.7148-10.895zm18.773-55.957h-8.5v42.012l8.8398 11.055v-52.93c-0.11719-0.03125-0.23438-0.078126-0.33984-0.13281zm-20.465 0v53.066l8.8398-11.055v-42.012zm19.547-3.125c-0.058593-0.24219-0.13672-0.48828-0.23828-0.72266-1.2656-2.9922-4.1094-9.7344-5.2891-12.531-0.45313-1.0664-0.62109-2.2305-0.49609-3.3828l0.011718-0.11328-6.5195-0.71094-0.011719 0.11328c-0.125 1.1484-0.54297 2.2539-1.2148 3.1953-1.7578 2.4766-5.9922 8.4414-7.8789 11.09-0.45312 0.64062-0.73828 1.3867-0.82031 2.168l-0.10156 0.89453zm-50.602 0-3.6172-16.672c-0.92969-4.2812-5.1523-7-9.4336-6.0703h-0.007813c-4.2812 0.92969-6.9961 5.1523-6.0703 9.4336l2.8867 13.305h4.8086c1.3672-1.9297 3.5508-4.0234 6.9023-5.1055 0.82031-0.26172 1.7031 0.1875 1.9688 1.0078 0.26172 0.82031-0.1875 1.7031-1.0078 1.9648-1.5391 0.49609-2.7539 1.2734-3.7109 2.1328h7.2734zm27.383-6.2266c-0.007812-6.5352-0.84375-11.965-2.4648-15.473-0.89844-1.9414-1.9688-3.2617-3.4102-3.543-0.87109-0.16797-1.7812 0.09375-2.7148 0.64844-1.1719 0.69141-2.3516 1.8203-3.5312 3.2891-3.5977 4.4961-7.0625 12.09-9.6211 21.305h19.258l0.13672-1.2305c0.14062-1.3125 0.61719-2.5664 1.3828-3.6406zm-15.617 2.9023 9.9531 1.9336c0.84766 0.16406 1.6641-0.39062 1.832-1.2383 0.16406-0.84375-0.39062-1.6641-1.2383-1.832l-9.9492-1.9297c-0.84766-0.16406-1.668 0.38672-1.832 1.2344-0.16406 0.84766 0.38672 1.668 1.2344 1.832zm-24.918-4.0742s1.4023-5.332 6.9062-7.1055c0.82031-0.26562 1.2734-1.1484 1.0078-1.9648-0.26563-0.82031-1.1484-1.2734-1.9688-1.0078-7.1719 2.3125-8.9727 9.2969-8.9727 9.2969-0.21484 0.83594 0.28516 1.6875 1.1172 1.9023 0.83594 0.21875 1.6875-0.28125 1.9062-1.1172zm27.121-5.5938 9.9492 1.9297c0.84766 0.16406 1.668-0.39062 1.8359-1.2344 0.16406-0.84766-0.39062-1.668-1.2383-1.8359l-9.9492-1.9297c-0.84766-0.16406-1.668 0.39062-1.8359 1.2344-0.16406 0.84766 0.39062 1.668 1.2383 1.8359zm32.188-6.7266 0.32031-2.9336-8.9727-0.98047-0.32031 2.9336z"
        fill-rule="evenodd" />
      <text x="0.0" y="117.5" font-size="5.0" font-weight="bold"
        font-family="Arbeit Regular, Helvetica, Arial-Unicode, Arial, Sans-serif" fill="#000000">Created
        by Firza Alamsyah</text>
      <text x="0.0" y="122.5" font-size="5.0" font-weight="bold"
        font-family="Arbeit Regular, Helvetica, Arial-Unicode, Arial, Sans-serif" fill="#000000">from
        Noun Project</text>
    </symbol>
    <symbol id="icon-profile" viewBox="0 0 64 80">
      <g>
        <path
          d="M32,14c-6.6,0-12,5.4-12,12c0,6.6,5.4,12,12,12s12-5.4,12-12C44,19.4,38.6,14,32,14z M32,34c-4.4,0-8-3.6-8-8s3.6-8,8-8   s8,3.6,8,8S36.4,34,32,34z" />
        <path
          d="M32,4C16.5,4,4,16.5,4,32c0,7.6,3.1,14.6,8,19.6c1.2,1.2,2.5,2.3,4,3.3c4.5,3.2,10,5,16,5s11.5-1.9,16-5   c1.4-1,2.7-2.1,4-3.3c5-5.1,8-12,8-19.6C60,16.5,47.5,4,32,4z M32,56c-6,0-11.4-2.2-15.6-5.8c1.1-3.6,4.4-6.2,8.3-6.2h14.7   c3.9,0,7.2,2.6,8.3,6.2C43.4,53.8,38,56,32,56z M50.7,47c-2.1-4.2-6.4-7-11.3-7H24.7c-5,0-9.3,2.9-11.3,7C10,42.9,8,37.7,8,32   C8,18.8,18.8,8,32,8s24,10.8,24,24C56,37.7,54,42.9,50.7,47z" />
      </g>
      <text x="0" y="79" fill="#000000" font-size="5px" font-weight="bold"
        font-family="'Helvetica Neue', Helvetica, Arial-Unicode, Arial, Sans-serif">Created by Mas
        Dhimas</text>
      <text x="0" y="84" fill="#000000" font-size="5px" font-weight="bold"
        font-family="'Helvetica Neue', Helvetica, Arial-Unicode, Arial, Sans-serif">from the Noun
        Project</text>
    </symbol>
    <symbol id="icon-recipe-checklist" viewBox="-3.2 -6.4 70.4 86.4">
      <g>
        <path
          d="M50,4H14c-1.654,0-3,1.346-3,3v50c0,1.654,1.346,3,3,3h36c1.654,0,3-1.346,3-3V7C53,5.346,51.654,4,50,4z M51,57   c0,0.551-0.448,1-1,1H14c-0.552,0-1-0.449-1-1V7c0-0.551,0.448-1,1-1h36c0.552,0,1,0.449,1,1V57z M41.462,27v-4.044   C43.04,21.709,44,19.68,44,17.527c0-3.686-2.727-6.684-6.077-6.684c-0.301,0-0.604,0.025-0.903,0.076C35.896,9.1,34.035,8,32,8   s-3.896,1.1-5.02,2.918c-0.3-0.051-0.603-0.076-0.903-0.076c-3.351,0-6.077,2.999-6.077,6.684c0,2.153,0.96,4.183,2.538,5.43V27   c0,0.552,0.447,1,1,1h16.924C41.015,28,41.462,27.553,41.462,27z M39.462,22.444V26H24.538v-3.556c0-0.339-0.172-0.655-0.456-0.839   C22.798,20.772,22,19.21,22,17.527c0-2.583,1.829-4.684,4.077-4.684c0.367,0,0.739,0.061,1.106,0.181   c0.479,0.158,1.006-0.069,1.218-0.53C29.113,10.956,30.492,10,32,10s2.887,0.955,3.599,2.493c0.213,0.46,0.74,0.688,1.218,0.53   c0.367-0.12,0.739-0.181,1.106-0.181c2.248,0,4.077,2.101,4.077,4.684c0,1.683-0.798,3.246-2.082,4.079   C39.634,21.79,39.462,22.105,39.462,22.444z M19,31c-1.654,0-3,1.346-3,3s1.346,3,3,3s3-1.346,3-3S20.654,31,19,31z M19,35   c-0.552,0-1-0.449-1-1s0.448-1,1-1s1,0.449,1,1S19.552,35,19,35z M19,40c-1.654,0-3,1.346-3,3s1.346,3,3,3s3-1.346,3-3   S20.654,40,19,40z M19,44c-0.552,0-1-0.449-1-1s0.448-1,1-1s1,0.449,1,1S19.552,44,19,44z M19,49c-1.654,0-3,1.346-3,3s1.346,3,3,3   s3-1.346,3-3S20.654,49,19,49z M19,53c-0.552,0-1-0.449-1-1s0.448-1,1-1s1,0.449,1,1S19.552,53,19,53z M48,34c0,0.552-0.447,1-1,1   H26c-0.553,0-1-0.448-1-1s0.447-1,1-1h21C47.553,33,48,33.448,48,34z M48,43c0,0.552-0.447,1-1,1H26c-0.553,0-1-0.448-1-1   s0.447-1,1-1h21C47.553,42,48,42.448,48,43z M48,52c0,0.552-0.447,1-1,1H26c-0.553,0-1-0.448-1-1s0.447-1,1-1h21   C47.553,51,48,51.448,48,52z" />
      </g>
      <text x="0.0" y="75.2" font-size="3.2" font-weight="bold"
        font-family="Arbeit Regular, Helvetica, Arial-Unicode, Arial, Sans-serif" fill="#000000">Created
        by RAHMAT DWI CAHYO</text>
      <text x="0.0" y="78.4" font-size="3.2" font-weight="bold"
        font-family="Arbeit Regular, Helvetica, Arial-Unicode, Arial, Sans-serif" fill="#000000">from
        Noun Project</text>
    </symbol>
    <symbol id="icon-shopping-list" viewBox="-5.0 -10.0 110.0 135.0">
      <path
        d="m60.5 93.898h-50c-0.77344 0-1.3984-0.625-1.3984-1.3984v-72.418c0-0.77344 0.625-1.4023 1.3984-1.4023h12.5c0.77344 0 1.3984 0.62891 1.3984 1.4023 0 0.77344-0.625 1.3984-1.3984 1.3984h-11.102v69.621h47.203v-10.707c0-0.77344 0.625-1.4023 1.3984-1.4023s1.3984 0.62891 1.3984 1.4023v12.105c0 0.37109-0.14453 0.72656-0.41016 0.98828-0.26172 0.26562-0.61719 0.41016-0.98828 0.41016z" />
      <path
        d="m60.5 64.48c-0.77344 0-1.3984-0.62891-1.3984-1.4023v-41.602l-11.102 0.003907c-0.77344 0-1.3984-0.62891-1.3984-1.4023s0.625-1.3984 1.3984-1.3984h12.5c0.77344 0 1.3984 0.625 1.3984 1.3984v43c0 0.37109-0.14453 0.72656-0.41016 0.99219-0.26172 0.26172-0.61719 0.41016-0.98828 0.41016z" />
      <path
        d="m48 27.48h-25c-0.77344 0-1.3984-0.625-1.3984-1.3984v-12c0-0.77344 0.625-1.4023 1.3984-1.4023h5.4297c0.46875 0 0.89062-0.27344 1.082-0.69922l1.3125-2.8789c0.83594-1.832 2.6641-3.0078 4.6758-3.0078s3.8398 1.1758 4.6758 3.0078l1.3125 2.8789c0.19141 0.42578 0.61328 0.69922 1.082 0.69922h5.4297c0.77344 0 1.3984 0.62891 1.3984 1.4023v12c0 0.37109-0.14453 0.72656-0.41016 0.98828-0.26172 0.26172-0.61719 0.41016-0.98828 0.41016zm-23.602-2.8008h22.203v-9.1992h-4.0312c-1.5625-0.003907-2.9805-0.91406-3.6289-2.332l-1.3125-2.8789c-0.37891-0.83594-1.2109-1.3711-2.1289-1.3711s-1.75 0.53516-2.1289 1.3711l-1.3125 2.8789c-0.64844 1.418-2.0664 2.3281-3.6289 2.332h-4.0312z" />
      <path
        d="m25 42.266h-7.5c-0.77344 0-1.3984-0.62891-1.3984-1.4023v-7.5c0-0.76953 0.625-1.3984 1.3984-1.3984h7.5c0.77344 0 1.3984 0.62891 1.3984 1.3984v7.5c0 0.37109-0.14453 0.73047-0.41016 0.99219-0.26172 0.26172-0.61719 0.41016-0.98828 0.41016zm-6.1016-2.8008h4.6992v-4.6992h-4.6992z" />
      <path
        d="m25 57.051h-7.5c-0.77344 0-1.3984-0.62891-1.3984-1.4023v-7.5c0-0.77344 0.625-1.3984 1.3984-1.3984h7.5c0.77344 0 1.3984 0.625 1.3984 1.3984v7.5c0 0.37109-0.14453 0.72656-0.41016 0.99219-0.26172 0.26172-0.61719 0.41016-0.98828 0.41016zm-6.1016-2.8008h4.6992v-4.6992h-4.6992z" />
      <path
        d="m25 71.832h-7.5c-0.77344 0-1.3984-0.625-1.3984-1.3984v-7.5c0-0.77344 0.625-1.4023 1.3984-1.4023h7.5c0.77344 0 1.3984 0.62891 1.3984 1.4023v7.5c0 0.37109-0.14453 0.72656-0.41016 0.98828-0.26172 0.26172-0.61719 0.41016-0.98828 0.41016zm-6.1016-2.8008h4.6992v-4.6992h-4.6992z" />
      <path
        d="m25 86.617h-7.5c-0.77344 0-1.3984-0.62891-1.3984-1.4023v-7.5c0-0.77344 0.625-1.3984 1.3984-1.3984h7.5c0.77344 0 1.3984 0.625 1.3984 1.3984v7.5c0 0.37109-0.14453 0.73047-0.41016 0.99219-0.26172 0.26172-0.61719 0.41016-0.98828 0.41016zm-6.1016-2.8008h4.6992v-4.6992h-4.6992z" />
      <path
        d="m54.211 35.516h-22.922c-0.77344 0-1.4023-0.62891-1.4023-1.4023 0-0.76953 0.62891-1.3984 1.4023-1.3984h22.922c0.77344 0 1.4023 0.62891 1.4023 1.3984 0 0.77344-0.62891 1.4023-1.4023 1.4023z" />
      <path
        d="m44.211 41.516h-12.922c-0.77344 0-1.4023-0.62891-1.4023-1.4023 0-0.76953 0.62891-1.3984 1.4023-1.3984h12.922c0.77344 0 1.4023 0.62891 1.4023 1.3984 0 0.77344-0.62891 1.4023-1.4023 1.4023z" />
      <path
        d="m54.211 50.301h-22.922c-0.77344 0-1.4023-0.62891-1.4023-1.4023 0-0.77344 0.62891-1.3984 1.4023-1.3984h22.922c0.77344 0 1.4023 0.625 1.4023 1.3984 0 0.77344-0.62891 1.4023-1.4023 1.4023z" />
      <path
        d="m44.211 56.301h-12.922c-0.77344 0-1.4023-0.62891-1.4023-1.4023 0-0.77344 0.62891-1.3984 1.4023-1.3984h12.922c0.77344 0 1.4023 0.625 1.4023 1.3984 0 0.77344-0.62891 1.4023-1.4023 1.4023z" />
      <path
        d="m49.211 65.082h-17.922c-0.77344 0-1.4023-0.625-1.4023-1.3984 0-0.77344 0.62891-1.4023 1.4023-1.4023h17.922c0.77344 0 1.4023 0.62891 1.4023 1.4023 0 0.77344-0.62891 1.3984-1.4023 1.3984z" />
      <path
        d="m44.211 71.082h-12.922c-0.77344 0-1.4023-0.625-1.4023-1.3984 0-0.77344 0.62891-1.4023 1.4023-1.4023h12.922c0.77344 0 1.4023 0.62891 1.4023 1.4023 0 0.77344-0.62891 1.3984-1.4023 1.3984z" />
      <path
        d="m49.211 79.867h-17.922c-0.77344 0-1.4023-0.62891-1.4023-1.4023 0-0.77344 0.62891-1.3984 1.4023-1.3984h17.922c0.77344 0 1.4023 0.625 1.4023 1.3984 0 0.77344-0.62891 1.4023-1.4023 1.4023z" />
      <path
        d="m44.211 85.867h-12.922c-0.77344 0-1.4023-0.62891-1.4023-1.4023 0-0.77344 0.62891-1.3984 1.4023-1.3984h12.922c0.77344 0 1.4023 0.625 1.4023 1.3984 0 0.77344-0.62891 1.4023-1.4023 1.4023z" />
      <path
        d="m85.129 80.09h-24.973c-0.62891 0-1.1797-0.41797-1.3477-1.0234l-4.3711-15.609c-0.12109-0.42188-0.035156-0.875 0.23047-1.2227 0.26562-0.35156 0.67969-0.55469 1.1172-0.55469h33.715c0.4375 0 0.85156 0.20312 1.1133 0.55469 0.26562 0.34766 0.35156 0.80078 0.23438 1.2227l-4.3711 15.609c-0.16797 0.60547-0.71875 1.0234-1.3477 1.0234zm-23.91-2.8008h22.848l3.5859-12.809h-30.023z" />
      <path
        d="m85.129 84.461h-20.602c-3.1836-0.003907-5.7656-2.5859-5.7695-5.7734 0-0.77344 0.62891-1.3984 1.4023-1.3984h10.082c0.77344 0 1.4023 0.625 1.4023 1.3984s-0.62891 1.4023-1.4023 1.4023h-8.3359c0.51562 0.96484 1.5234 1.5664 2.6172 1.5703h20.602c0.77344 0 1.3984 0.625 1.3984 1.3984 0 0.77344-0.625 1.4023-1.3984 1.4023z" />
      <path
        d="m67.492 93.898c-1.6758 0-3.1914-1.0078-3.832-2.5586-0.64453-1.5508-0.28906-3.3359 0.89844-4.5234s2.9727-1.543 4.5234-0.90234c1.5508 0.64453 2.5625 2.1562 2.5625 3.8359-0.003906 2.2891-1.8594 4.1484-4.1523 4.1484zm0-5.5c-0.54297 0-1.0352 0.33203-1.2461 0.83594-0.20703 0.50391-0.09375 1.0859 0.29297 1.4688 0.38672 0.38672 0.96875 0.50391 1.4727 0.29297 0.50391-0.20703 0.83203-0.69922 0.83203-1.2461 0-0.74609-0.60547-1.3477-1.3516-1.3516z" />
      <path
        d="m79.789 93.898c-1.6758 0-3.1914-1.0078-3.832-2.5586-0.64453-1.5508-0.28906-3.3359 0.89844-4.5234s2.9727-1.543 4.5234-0.90234c1.5508 0.64453 2.5625 2.1562 2.5625 3.8359-0.003906 2.2891-1.8594 4.1484-4.1523 4.1484zm0-5.5c-0.54687 0-1.0391 0.33203-1.2461 0.83594-0.21094 0.50391-0.09375 1.0859 0.29297 1.4688 0.38672 0.38672 0.96484 0.50391 1.4688 0.29297 0.50781-0.20703 0.83594-0.69922 0.83594-1.2461 0-0.74609-0.60547-1.3477-1.3516-1.3516z" />
      <path
        d="m87.316 72.281h-29.348c-0.77344 0-1.3984-0.625-1.3984-1.3984 0-0.77344 0.625-1.3984 1.3984-1.3984h29.348c0.77344 0 1.3984 0.625 1.3984 1.3984 0 0.77344-0.625 1.3984-1.3984 1.3984z" />
      <path
        d="m55.785 64.48c-0.62109 0-1.1641-0.41016-1.3438-1l-1.5742-5.2461h-3.3672v-2.8008h4.4102c0.62109 0 1.1641 0.40625 1.3438 1l1.8711 6.2422c0.125 0.42578 0.046875 0.88281-0.21875 1.2383-0.26562 0.35547-0.67969 0.5625-1.1211 0.5625z" />
      <path
        d="m76.805 80.09c-0.042969 0-0.085938-0.003906-0.13281-0.007813h0.003906c-0.76953-0.074219-1.3359-0.75391-1.2656-1.5234l1.457-15.609c0.035156-0.37109 0.21484-0.71094 0.5-0.94922 0.28516-0.23438 0.65234-0.34766 1.0234-0.31641 0.76953 0.074218 1.3359 0.75391 1.2656 1.5273l-1.457 15.605c-0.066407 0.72266-0.67188 1.2734-1.3945 1.2734z" />
      <path
        d="m68.477 80.09c-0.71875-0.003906-1.3242-0.55469-1.3906-1.2734l-1.457-15.605c-0.070312-0.77344 0.49609-1.4531 1.2656-1.5273 0.76953-0.070313 1.4492 0.49609 1.5234 1.2656l1.457 15.609c0.035156 0.36719-0.082031 0.73828-0.31641 1.0234-0.23828 0.28516-0.57812 0.46484-0.94922 0.5-0.042969 0.003907-0.089844 0.007813-0.13281 0.007813z" />
      <text x="0.0" y="117.5" font-size="5.0" font-weight="bold"
        font-family="Arbeit Regular, Helvetica, Arial-Unicode, Arial, Sans-serif" fill="#000000">Created
        by Qadeer Hussain</text>
      <text x="0.0" y="122.5" font-size="5.0" font-weight="bold"
        font-family="Arbeit Regular, Helvetica, Arial-Unicode, Arial, Sans-serif" fill="#000000">from
        Noun Project</text>
    </symbol>
    <symbol id="icon-meal-plan" viewBox="0 0 512 640">
      <title>Artboard 66</title>
    <path
        d="M362,60.56H316.29a8,8,0,0,0-8,7.75,25.63,25.63,0,0,1-51.23,0,8,8,0,0,0-8-7.75h-88.8a8,8,0,0,0-8,7.91,25.63,25.63,0,0,1-51.25,0,8,8,0,0,0-8-7.91H46A31.62,31.62,0,0,0,14.46,92.15V393.54A31.62,31.62,0,0,0,46,425.13H362a31.51,31.51,0,0,0,13.94-3.24l2.37,16.49c.05.32.12.64.2.95.22.79.4,1.5.56,2.14,1,3.81,2.35,9,8.21,9.88a8.92,8.92,0,0,0,1.34.1c5.07,0,7.73-4.43,9.9-8.05a8.2,8.2,0,0,0,.57-1.15l87.38-219.39c12.69-21.56,14.63-47.28,5.05-67.27-8.39-17.49-24.26-28.67-44.62-31.48l-5.25-.77,22.09-19.54a8,8,0,1,0-10.6-12l-14.77,13.06L441,85.73a8,8,0,1,0-15.85-2.21l-2.59,18.57-10.48-17a8,8,0,1,0-13.62,8.38l16.23,26.36-5.79-.65a68.91,68.91,0,0,0-15.36-.22V92.15A31.62,31.62,0,0,0,362,60.56ZM30.46,92.15A15.61,15.61,0,0,1,46,76.56H85.87a41.63,41.63,0,0,0,81.53,0H242a41.66,41.66,0,0,0,81.3,0H362a15.61,15.61,0,0,1,15.59,15.59v30.73a54.56,54.56,0,0,0-20.94,15H30.46ZM362,409.13H46a15.6,15.6,0,0,1-15.58-15.59V153.88H346.71c-6,14.17-7,31-2.54,47.79l29.17,202.52A15.55,15.55,0,0,1,362,409.13Zm38.36-274.49a55.07,55.07,0,0,1,6.71.42l18.79,2.12L444.59,140c19.15,2.64,28.22,13.72,32.45,22.55,7.37,15.39,5.58,35.58-4.68,52.71a7.69,7.69,0,0,0-.57,1.15L469.14,223l-25.47-4.46a8,8,0,0,0-2.76,15.77l22.18,3.87L408.35,375.63l-11.84-1.55A8,8,0,0,0,394.45,390l7.79,1-10.75,27-1.8-12.46s0-.07,0-.11l-9.53-66.16,3.22.73a7.73,7.73,0,0,0,1.78.21,8,8,0,0,0,1.77-15.81l-9.21-2.1L371.76,281l19.76,3.45a8.24,8.24,0,0,0,1.39.12,8,8,0,0,0,1.37-15.88l-24.92-4.36-9.42-65.43a8.19,8.19,0,0,0-.2-1,66.13,66.13,0,0,1-2.24-13.81l44.63,7.32a8.15,8.15,0,0,0,1.3.11,8,8,0,0,0,1.29-15.9l-45.87-7.53a45.87,45.87,0,0,1,9.83-19.77C376.45,139.4,387.5,134.64,400.31,134.64Z" />
    <path
        d="M232.57,247.26H176.33a8,8,0,0,0-8,8V302.1a8,8,0,0,0,8,8h56.24a8,8,0,0,0,8-8V255.26A8,8,0,0,0,232.57,247.26Zm-8,46.84H184.33V263.26h40.24Z" />
    <path
        d="M141.85,247.26H85.61a8,8,0,0,0-8,8V302.1a8,8,0,0,0,8,8h56.24a8,8,0,0,0,8-8V255.26A8,8,0,0,0,141.85,247.26Zm-8,46.84H93.61V263.26h40.24Z" />
    <path
        d="M323.29,247.26H267.05a8,8,0,0,0-8,8V302.1a8,8,0,0,0,8,8h56.24a8,8,0,0,0,8-8V255.26A8,8,0,0,0,323.29,247.26Zm-8,46.84H275.05V263.26h40.24Z" />
    <path
        d="M232.57,176.9H176.33a8,8,0,0,0-8,8v46.84a8,8,0,0,0,8,8h56.24a8,8,0,0,0,8-8V184.9A8,8,0,0,0,232.57,176.9Zm-8,46.84H184.33V192.9h40.24Z" />
    <path
        d="M141.85,176.9H85.61a8,8,0,0,0-8,8v46.84a8,8,0,0,0,8,8h56.24a8,8,0,0,0,8-8V184.9A8,8,0,0,0,141.85,176.9Zm-8,46.84H93.61V192.9h40.24Z" />
    <path
        d="M323.29,176.9H267.05a8,8,0,0,0-8,8v46.84a8,8,0,0,0,8,8h56.24a8,8,0,0,0,8-8V184.9A8,8,0,0,0,323.29,176.9Zm-8,46.84H275.05V192.9h40.24Z" />
    <path
        d="M232.57,317.62H176.33a8,8,0,0,0-8,8v46.84a8,8,0,0,0,8,8h56.24a8,8,0,0,0,8-8V325.62A8,8,0,0,0,232.57,317.62Zm-8,46.84H184.33V333.62h40.24Z" />
    <path
        d="M141.85,317.62H85.61a8,8,0,0,0-8,8v46.84a8,8,0,0,0,8,8h56.24a8,8,0,0,0,8-8V325.62A8,8,0,0,0,141.85,317.62Zm-8,46.84H93.61V333.62h40.24Z" />
    <path
        d="M323.29,317.62H267.05a8,8,0,0,0-8,8v46.84a8,8,0,0,0,8,8h56.24a8,8,0,0,0,8-8V325.62A8,8,0,0,0,323.29,317.62Zm-8,46.84H275.05V333.62h40.24Z" />
    <text x="0" y="527" fill="#000000" font-size="5px" font-weight="bold"
        font-family="'Helvetica Neue', Helvetica, Arial-Unicode, Arial, Sans-serif">Created by Sou</text>
    <text x="0" y="532" fill="#000000" font-size="5px" font-weight="bold"
        font-family="'Helvetica Neue', Helvetica, Arial-Unicode, Arial, Sans-serif">from the Noun
        Project</text>
    </symbol>
  </defs>
</svg>