<svg xmlns="http://www.w3.org/2000/svg" version="1.1" viewBox="-5.0 -10.0 110.0 135.0">
 <path d="m18.059 26.238c0 0.75781-0.61328 1.3672-1.3672 1.3672h-4.9023v4.6797c0 0.75781-0.61328 1.3672-1.3672 1.3672-0.75781 0-1.3711-0.60938-1.3711-1.3672v-6.0469c0-0.75391 0.61328-1.3672 1.3711-1.3672h6.2695c0.75391 0 1.3672 0.61328 1.3672 1.3672zm11.871 3.4609-8.3984 4.4219c-0.32031 0.17188-0.5625 0.46094-0.66797 0.80859-0.10938 0.34375-0.074219 0.71875 0.09375 1.043 0.35547 0.66797 1.1836 0.92188 1.8516 0.57031l8.3984-4.4219c0.66797-0.35156 0.92578-1.1797 0.57031-1.8477-0.35156-0.66797-1.1797-0.92578-1.8477-0.57422zm12.832-0.61328-8.4023 4.4297v0.003906c-0.66797 0.35156-0.92578 1.1797-0.57031 1.8477 0.35156 0.66797 1.1797 0.92578 1.8477 0.57422l8.4023-4.4297c0.66797-0.35547 0.92578-1.1797 0.57422-1.8516-0.35547-0.66797-1.1797-0.92188-1.8516-0.57031zm57.238 35.23v9.0938c0 0.46094-0.23047 0.89062-0.61719 1.1445l-8.3555 5.5-0.011719 0.007812-0.011719 0.003906c-0.046875 0.03125-0.097656 0.058594-0.14844 0.082032l-0.03125 0.015624h0.003906c-0.058594 0.023438-0.11328 0.046876-0.17188 0.0625h-0.015625c-0.054687 0.015626-0.10547 0.027344-0.16016 0.035157l-0.042969 0.007812h0.003906c-0.058594 0.007813-0.12109 0.011719-0.17969 0.011719h-36.859c-0.75781 0-1.3711-0.61328-1.3711-1.3672v-9.0859c-0.074219-0.47656 0.17578-0.94531 0.61328-1.1445l1.3047-0.85938h-41.156c-0.75391 0-1.3672-0.61328-1.3672-1.3672v-5.1836h-2.5273c-4.9102-0.003907-8.8945-3.9805-8.8984-8.8945v-7.5273c0-0.75391 0.61328-1.3672 1.3672-1.3672h2.6484c-0.097656-0.33594-0.14453-0.6875-0.14844-1.0352v-18.957c0.003906-2.082 1.6914-3.7734 3.7734-3.7773h52.176c2.0859 0.003906 3.7734 1.6914 3.7773 3.7773v18.953c0 0.35156-0.050781 0.69922-0.14844 1.0391h1.9219v-20.488c0.003906-1.5195 1.2344-2.75 2.7578-2.75h4.6016c0.91016 0 1.7656 0.44922 2.2773 1.2031l4.0391-1.2734v-0.003906c1.4531-0.45703 3 0.34766 3.4609 1.7969l6.8438 21.645h-0.003906c0.48047 0.22656 0.78906 0.70703 0.78906 1.2383v7.5273c-0.003906 4.9102-3.9844 8.8906-8.8945 8.8945h-2.5273v1.6758h19.922 0.046876c0.36719-0.027344 0.72266 0.11328 0.97656 0.375 0.25781 0.26562 0.38281 0.62891 0.34375 0.99219zm-5.9414 1.3672h-31.875l-2.8711 1.8945-0.058594 0.039063-1.2852 0.84375 31.879-0.003907zm-18.574-41.512v0.0625l6.0938 19.25h4.8594l-6.543-20.691-0.019531-0.007813zm0 19.312h3.2148l-3.2148-10.16zm-7.375 0h4.6328v-19.047c-0.015626-0.16406-0.015626-0.33203 0-0.49609v-0.94922s-0.011719-0.015626-0.019532-0.015626l-4.5977 0.003907zm-60.473 0h52.18c0.56641-0.011719 1.0273-0.46875 1.0352-1.0391v-18.953c-0.007812-0.56641-0.46875-1.0273-1.0352-1.0352h-52.176c-0.57031 0-1.0312 0.46484-1.0312 1.0352v18.953c0 0.57031 0.46094 1.0352 1.0312 1.0391zm1.2539 15.051h72.352c3.3984-0.003906 6.1523-2.7578 6.1562-6.1562v-6.1562h-84.66v6.1562c0.003907 3.3984 2.7578 6.1523 6.1562 6.1562zm49.219 6.5469 2.9062-1.9141h0.003906c0.22266-0.14453 0.48438-0.22656 0.75391-0.22656h14.195v-1.668h-61.801v3.8086zm-3.3359 12.461h34.113v-6.3477h-34.113zm42.488-10.688-5.6289 3.707v5.8086l5.6289-3.707z"/>
<text x="0.0" y="117.5" font-size="5.0" font-weight="bold" font-family="Arbeit Regular, Helvetica, Arial-Unicode, Arial, Sans-serif" fill="#000000">Created by Ochtavia Asmieza Rizita</text><text x="0.0" y="122.5" font-size="5.0" font-weight="bold" font-family="Arbeit Regular, Helvetica, Arial-Unicode, Arial, Sans-serif" fill="#000000">from Noun Project</text></svg>