<svg xmlns="http://www.w3.org/2000/svg" version="1.1" viewBox="-5.0 -10.0 110.0 135.0">
 <path d="m42.621 11.898c1.7578 1.3711 3.5391 2.9102 4.5039 3.8711 6.668 6.668 11.281 15.562 13.34 25.723l2.1211 10.473 5.2891-9.2812c1.1094-1.9492 1.9375-3.8984 2.6055-5.8867 1.043 1.7344 2.1875 3.3828 3.3164 5.0078 0.83203 1.1992 1.6172 2.3281 2.3555 3.4844 3.3438 5.2227 5.2969 10.441 5.8047 15.516 0.16797 1.6602 0.17188 3.3086 0.019531 4.9062-0.58984 6.1406-3.3125 12.637-7.2852 17.379-3.0234 3.6055-8.1445 7.9023-15.371 7.9062h-0.36719-0.17969c2.5742-5.4062 4.6289-11.988 1.8203-18.191-1.5703-3.4648-4.3164-5.832-6.7383-7.9219l-0.59375-0.51172c-3.3633-2.9219-5.0938-6.1953-5.4453-10.305l-0.64453-7.5312-5.875 4.7617c-4.0234 3.2617-6.8242 6.8945-8.3203 10.801-1.7734 4.6328-1.2305 9.2695 1.6562 14.176 3.5977 6.1133 4.3945 10.066 2.5391 13.387-2.7109-0.90625-5.3945-2.3828-7.8477-4.332-5.6172-4.4609-9.6289-10.82-11.004-17.453-1.3906-6.7148 0.86719-13.445 6.7109-20.004 1.3711-1.5391 2.8789-3.0273 4.4766-4.6055 3.7578-3.7148 7.6445-7.5547 10.207-12.527 2.832-5.4961 3.8242-12.039 2.9141-18.832m-4.1562-6.9062c-0.5625 0-0.93359 0.26953-1.0312 0.90625-0.09375 0.60547 0.085938 1.2188 0.24609 1.8125 1.9219 7 1.8398 14.621-1.5391 21.176-3.2891 6.3789-9.4062 11.023-14.113 16.305-5.8984 6.6172-9.4961 14.543-7.6406 23.484 1.6055 7.7461 6.2695 14.883 12.438 19.781 3.3203 2.6328 7.1641 4.6562 11.301 5.6289 0.078126 0.019531 0.16016 0.027344 0.24219 0.027344 0.30469 0 0.60547-0.13281 0.80469-0.36719 5.3477-6.3242 2.5781-13.285-1.0859-19.516-2.0391-3.4648-2.832-6.8828-1.3672-10.707 1.3945-3.6406 4.1055-6.6914 7.0977-9.1211 0.45703 5.3633 2.8008 9.5039 6.8125 12.988 2.4023 2.0859 4.9961 4.1602 6.3086 7.0625 2.4609 5.4336-0.17187 11.762-2.7109 16.66-0.60156 1.1602-1.1992 2.2266-0.070313 3.0742 1.0352 0.77734 3.3672 0.8125 4.7891 0.8125h0.36719c14.961 0 25.34-15.266 26.648-28.91 0.18359-1.9102 0.16797-3.8125-0.019531-5.6914-0.61719-6.1523-3.0781-12.062-6.418-17.277-3.0898-4.8242-6.9805-9.3164-8.5195-14.836-0.12109-0.4375-0.23438-0.89062-0.51562-1.2461-0.21094-0.26953-0.55078-0.46875-0.88672-0.46875-0.10547 0-0.21094 0.019531-0.30859 0.0625-0.44531 0.19531-0.59766 0.74219-0.69531 1.2188-0.93359 4.5508-1.8828 8.7617-4.2109 12.84-2.2188-10.949-7.1758-20.504-14.434-27.762-1.0391-1.0391-8.6562-7.9336-11.488-7.9336z"/>
<text x="0.0" y="117.5" font-size="5.0" font-weight="bold" font-family="Arbeit Regular, Helvetica, Arial-Unicode, Arial, Sans-serif" fill="#000000">Created by Lewen Design</text><text x="0.0" y="122.5" font-size="5.0" font-weight="bold" font-family="Arbeit Regular, Helvetica, Arial-Unicode, Arial, Sans-serif" fill="#000000">from Noun Project</text></svg>