<svg xmlns="http://www.w3.org/2000/svg" viewBox="0 0 256 320" x="0px" y="0px"><title>Kitchen Cook Line</title><path d="M220.783,52.244h-10.45V21.383l-3.3-3.3H67.073a28.082,28.082,0,0,0-28.05,28.05V211.777a28.082,28.082,0,0,0,28.05,28.05h153.71l3.3-3.3V55.544ZM76.683,24.683h127.05V52.244h-4.95V32.994l-3.3-3.3H76.683Zm95.442,27.561H69.613a7.975,7.975,0,1,1,0-15.95H192.183v15.95Zm18.958,6.6V84.326l-5.64-5h-4.379l-5.64,5V58.844ZM76.683,233.227h-9.61a21.474,21.474,0,0,1-21.45-21.45V46.133a21.474,21.474,0,0,1,21.45-21.45h3.01v5.011h-.471a14.575,14.575,0,1,0,0,29.15h7.071Zm140.8,0H83.283V58.844h85.542V91.662l5.489,2.469,8.94-7.926,8.94,7.926,5.489-2.469V58.844h19.8Z"/><path d="M123.041,134.929a33.087,33.087,0,0,1,3.892,4.126c2.149,2.847,2.815,4.411,2.8,8.651l0,0v9.923l3.3,3.3h34.695l3.3-3.3v-9.923l0,0c-.017-4.239.65-5.8,2.8-8.651a33.05,33.05,0,0,1,3.892-4.126c2.67-2.522,5.431-5.13,6.9-9.756,2.057-6.492.727-15.352-5.793-19.727h0c-3.68-2.469-11.149-3.2-17.56.632-2.393-3.487-6.348-6.014-10.256-6.2h-.291c-.143,0-.534,0-.661,0h-.308c-3.907.184-7.862,2.711-10.256,6.2-6.41-3.827-13.879-3.1-17.56-.632-6.521,4.376-7.85,13.237-5.793,19.728C117.61,129.8,120.371,132.407,123.041,134.929Zm41.39,19.4H136.336v-3.5h28.095Zm-38.816-43.406c1.712-1.148,8.038-2.059,12.819,2.608l5.512-1.583c.7-2.867,3.83-5.3,6.02-5.474.246.005.588.005.834,0,2.19.17,5.325,2.608,6.02,5.474l5.512,1.583c4.78-4.665,11.107-3.757,12.819-2.608,3.645,2.446,4.479,8.151,3.179,12.254-.949,2.995-2.8,4.741-5.137,6.951a39.3,39.3,0,0,0-4.628,4.948,17.5,17.5,0,0,0-3.952,9.151h-2.356v-.586l0-.112c0-.089-.187-8.878,6.235-11.828l-2.754-6c-10.153,4.663-10.108,16.788-10.078,17.985v.538h-1.974V129.055h-6.6V144.23h-1.973v-.539c.03-1.2.074-13.321-10.078-17.984l-2.755,6c6.422,2.95,6.238,11.74,6.236,11.814v.711h-2.358a17.5,17.5,0,0,0-3.952-9.151,39.293,39.293,0,0,0-4.628-4.948c-2.34-2.21-4.188-3.956-5.137-6.951C121.137,119.077,121.97,113.372,125.615,110.926Z"/><rect x="111.042" y="175.079" width="78.684" height="6.6"/><rect x="111.042" y="191.212" width="78.684" height="6.6"/><text x="0" y="271" fill="#000000" font-size="5px" font-weight="bold" font-family="'Helvetica Neue', Helvetica, Arial-Unicode, Arial, Sans-serif">Created by nuengrutai</text><text x="0" y="276" fill="#000000" font-size="5px" font-weight="bold" font-family="'Helvetica Neue', Helvetica, Arial-Unicode, Arial, Sans-serif">from the Noun Project</text></svg>