<svg xmlns="http://www.w3.org/2000/svg" xmlns:xlink="http://www.w3.org/1999/xlink" xmlns:serif="http://www.serif.com/" viewBox="0 0 32 40" version="1.1" xml:space="preserve" style="" x="0px" y="0px" fill-rule="evenodd" clip-rule="evenodd" stroke-linejoin="round" stroke-miterlimit="2"><g transform="matrix(1,0,0,1,-5323.35,0.703444)"><path d="M5342.49,5.174L5339.01,5.174L5339.01,4.018C5339.01,3.742 5338.78,3.518 5338.51,3.518C5338.23,3.518 5338.01,3.742 5338.01,4.018L5338.01,5.174L5334.52,5.174L5334.52,4.018C5334.52,3.742 5334.3,3.518 5334.02,3.518C5333.75,3.518 5333.52,3.742 5333.52,4.018L5333.52,5.174L5330.04,5.174L5330.04,4.018C5330.04,3.742 5329.82,3.518 5329.54,3.518C5329.26,3.518 5329.04,3.742 5329.04,4.018L5329.04,5.174L5325.35,5.174C5325.07,5.174 5324.85,5.398 5324.85,5.674L5324.85,26.236C5324.85,26.512 5325.07,26.736 5325.35,26.736L5343.56,26.736C5344.36,27.073 5345.2,27.171 5346.01,26.976C5346.29,26.907 5346.56,26.806 5346.81,26.677C5347.06,26.806 5347.33,26.907 5347.61,26.976C5349.96,27.546 5352.66,25.613 5353.56,22.577C5354.47,19.512 5353.18,16.594 5350.81,16.019C5349.72,15.756 5348.57,16.013 5347.55,16.671C5347.7,15.943 5348.12,14.879 5349.33,14.086C5349.56,13.934 5349.63,13.624 5349.48,13.393C5349.33,13.163 5349.02,13.098 5348.78,13.25C5348.34,13.545 5347.97,13.871 5347.68,14.207L5347.68,5.674C5347.68,5.398 5347.45,5.174 5347.18,5.174L5343.49,5.174L5343.49,4.018C5343.49,3.742 5343.27,3.518 5342.99,3.518C5342.71,3.518 5342.49,3.742 5342.49,4.018L5342.49,5.174ZM5346.95,18.044C5346.55,18.077 5346.14,17.965 5345.81,17.708C5344.96,17.067 5343.98,16.766 5343.05,16.991C5341.15,17.45 5340.3,19.846 5341.02,22.293C5341.49,23.883 5342.53,25.154 5343.72,25.736C5343.72,25.736 5344.05,25.892 5344.32,25.967C5344.8,26.101 5345.29,26.12 5345.78,26.004C5346.05,25.937 5346.31,25.826 5346.54,25.678C5346.7,25.574 5346.91,25.574 5347.08,25.678C5347.31,25.826 5347.57,25.937 5347.85,26.004C5349.76,26.469 5351.86,24.768 5352.6,22.293C5353.32,19.846 5352.47,17.45 5350.57,16.991C5349.64,16.766 5348.66,17.067 5347.82,17.707C5347.62,17.859 5347.4,17.96 5347.16,18.011C5347.12,18.028 5347.08,18.039 5347.03,18.043C5347,18.046 5346.97,18.046 5346.95,18.044ZM5346.68,13.719L5346.68,11.574L5325.85,11.574L5325.85,25.736L5342.01,25.736C5341.15,24.952 5340.44,23.863 5340.06,22.577C5339.15,19.512 5340.44,16.594 5342.82,16.019C5342.96,15.983 5343.11,15.957 5343.26,15.94C5342.65,15.101 5342.53,14.077 5342.9,13.226C5342.96,13.099 5343.07,13.001 5343.2,12.954C5344.3,12.561 5345.67,12.808 5346.64,13.68C5346.65,13.693 5346.66,13.706 5346.68,13.719ZM5338.53,19.788C5338.53,19.512 5338.31,19.288 5338.03,19.288L5334.28,19.288C5334,19.288 5333.78,19.512 5333.78,19.788L5333.78,23.544C5333.78,23.82 5334,24.044 5334.28,24.044L5338.03,24.044C5338.31,24.044 5338.53,23.82 5338.53,23.544L5338.53,19.788ZM5332.41,19.788C5332.41,19.512 5332.19,19.288 5331.91,19.288L5328.15,19.288C5327.88,19.288 5327.65,19.512 5327.65,19.788L5327.65,23.544C5327.65,23.82 5327.88,24.044 5328.15,24.044L5331.91,24.044C5332.19,24.044 5332.41,23.82 5332.41,23.544L5332.41,19.788ZM5337.53,20.288L5337.53,23.044C5337.53,23.044 5334.78,23.044 5334.78,23.044C5334.78,23.044 5334.78,20.288 5334.78,20.288L5337.53,20.288ZM5331.41,20.288L5331.41,23.044C5331.41,23.044 5328.65,23.044 5328.65,23.044C5328.65,23.044 5328.65,20.288 5328.65,20.288L5331.41,20.288ZM5332.41,13.665C5332.41,13.389 5332.19,13.165 5331.91,13.165L5328.15,13.165C5327.88,13.165 5327.65,13.389 5327.65,13.665L5327.65,17.422C5327.65,17.698 5327.88,17.922 5328.15,17.922L5331.91,17.922C5332.19,17.922 5332.41,17.698 5332.41,17.422L5332.41,13.665ZM5338.53,13.665C5338.53,13.389 5338.31,13.165 5338.03,13.165L5334.28,13.165C5334,13.165 5333.78,13.389 5333.78,13.665L5333.78,17.422C5333.78,17.698 5334,17.922 5334.28,17.922L5338.03,17.922C5338.31,17.922 5338.53,17.698 5338.53,17.422L5338.53,13.665ZM5347.82,17.705L5347.81,17.708L5347.82,17.705ZM5331.41,14.165L5331.41,16.922C5331.41,16.922 5328.65,16.922 5328.65,16.922C5328.65,16.922 5328.65,14.165 5328.65,14.165L5331.41,14.165ZM5337.53,14.165L5337.53,16.922C5337.53,16.922 5334.78,16.922 5334.78,16.922C5334.78,16.922 5334.78,14.165 5334.78,14.165L5337.53,14.165ZM5343.75,13.832C5344.49,13.656 5345.35,13.861 5345.97,14.422C5346.55,14.949 5346.78,15.67 5346.61,16.298C5345.87,16.475 5345.01,16.27 5344.39,15.709C5343.81,15.182 5343.58,14.46 5343.75,13.832L5343.75,13.832ZM5343.49,6.174L5343.49,7.902C5343.49,8.178 5343.27,8.402 5342.99,8.402C5342.71,8.402 5342.49,8.178 5342.49,7.902L5342.49,6.174L5339.01,6.174L5339.01,7.902C5339.01,8.178 5338.78,8.402 5338.51,8.402C5338.23,8.402 5338.01,8.178 5338.01,7.902L5338.01,6.174L5334.52,6.174L5334.52,7.902C5334.52,8.178 5334.3,8.402 5334.02,8.402C5333.75,8.402 5333.52,8.178 5333.52,7.902L5333.52,6.174L5330.04,6.174L5330.04,7.902C5330.04,8.178 5329.82,8.402 5329.54,8.402C5329.26,8.402 5329.04,8.178 5329.04,7.902L5329.04,6.174L5325.85,6.174L5325.85,10.574L5346.68,10.574L5346.68,6.174L5343.49,6.174Z"/></g><text x="0" y="47" fill="#000000" font-size="5px" font-weight="bold" font-family="'Helvetica Neue', Helvetica, Arial-Unicode, Arial, Sans-serif">Created by rendicon</text><text x="0" y="52" fill="#000000" font-size="5px" font-weight="bold" font-family="'Helvetica Neue', Helvetica, Arial-Unicode, Arial, Sans-serif">from the Noun Project</text></svg>