<svg xmlns="http://www.w3.org/2000/svg" version="1.1" viewBox="-5.0 -10.0 110.0 135.0">
 <path d="m14.047 95.312h71.793c0.39453 0 0.75391-0.14453 1.0273-0.38281 0.13281-0.11719 0.24219-0.25391 0.32812-0.39844 0.13281-0.22656 0.20703-0.49219 0.20703-0.77734v-59.082c0-0.74219-0.51172-1.3594-1.2031-1.5234-0.089844-0.67578-0.27344-1.3398-0.53906-1.9766-1.2656-2.9922-4.1133-9.7344-5.293-12.531-0.24219-0.57812-0.33594-1.207-0.26953-1.8281l0.046875-0.42969c0.77734-0.33594 1.3594-1.0703 1.4609-1.9766l0.46875-4.2891c0.14844-1.3398-0.82031-2.5469-2.1641-2.6953l-10.332-1.1328c-1.3398-0.14844-2.543 0.82031-2.6914 2.1641l-0.46875 4.2891c-0.10156 0.90234 0.30469 1.7461 0.99219 2.2422l-0.046875 0.42969c-0.070312 0.62109-0.29297 1.2188-0.65625 1.7266l-3.918 5.5156c-0.32031-5.2109-1.2266-9.543-2.6211-12.566-1.4141-3.0547-3.3828-4.8594-5.6484-5.3008-2.875-0.55469-6.1797 1.1797-9.2812 5.0547-3.6914 4.6055-7.2969 12.289-9.9766 21.641l-3.4102-15.715c-1.293-5.9688-7.1797-9.7578-13.148-8.4609 0 0-0.003906 0.003906-0.007813 0.003906-5.9648 1.293-9.7578 7.1797-8.4609 13.148l2.8203 12.996c-0.35156 0.28516-0.57422 0.72266-0.57422 1.2109v59.082c0 0.86328 0.69922 1.5625 1.5625 1.5625zm46.301-59.082h-44.738v55.957h44.738zm4.8164 55.957h17.426c-3.1172-3.8945-8.7148-10.895-8.7148-10.895zm18.773-55.957h-8.5v42.012l8.8398 11.055v-52.93c-0.11719-0.03125-0.23438-0.078126-0.33984-0.13281zm-20.465 0v53.066l8.8398-11.055v-42.012zm19.547-3.125c-0.058593-0.24219-0.13672-0.48828-0.23828-0.72266-1.2656-2.9922-4.1094-9.7344-5.2891-12.531-0.45313-1.0664-0.62109-2.2305-0.49609-3.3828l0.011718-0.11328-6.5195-0.71094-0.011719 0.11328c-0.125 1.1484-0.54297 2.2539-1.2148 3.1953-1.7578 2.4766-5.9922 8.4414-7.8789 11.09-0.45312 0.64062-0.73828 1.3867-0.82031 2.168l-0.10156 0.89453zm-50.602 0-3.6172-16.672c-0.92969-4.2812-5.1523-7-9.4336-6.0703h-0.007813c-4.2812 0.92969-6.9961 5.1523-6.0703 9.4336l2.8867 13.305h4.8086c1.3672-1.9297 3.5508-4.0234 6.9023-5.1055 0.82031-0.26172 1.7031 0.1875 1.9688 1.0078 0.26172 0.82031-0.1875 1.7031-1.0078 1.9648-1.5391 0.49609-2.7539 1.2734-3.7109 2.1328h7.2734zm27.383-6.2266c-0.007812-6.5352-0.84375-11.965-2.4648-15.473-0.89844-1.9414-1.9688-3.2617-3.4102-3.543-0.87109-0.16797-1.7812 0.09375-2.7148 0.64844-1.1719 0.69141-2.3516 1.8203-3.5312 3.2891-3.5977 4.4961-7.0625 12.09-9.6211 21.305h19.258l0.13672-1.2305c0.14062-1.3125 0.61719-2.5664 1.3828-3.6406zm-15.617 2.9023 9.9531 1.9336c0.84766 0.16406 1.6641-0.39062 1.832-1.2383 0.16406-0.84375-0.39062-1.6641-1.2383-1.832l-9.9492-1.9297c-0.84766-0.16406-1.668 0.38672-1.832 1.2344-0.16406 0.84766 0.38672 1.668 1.2344 1.832zm-24.918-4.0742s1.4023-5.332 6.9062-7.1055c0.82031-0.26562 1.2734-1.1484 1.0078-1.9648-0.26563-0.82031-1.1484-1.2734-1.9688-1.0078-7.1719 2.3125-8.9727 9.2969-8.9727 9.2969-0.21484 0.83594 0.28516 1.6875 1.1172 1.9023 0.83594 0.21875 1.6875-0.28125 1.9062-1.1172zm27.121-5.5938 9.9492 1.9297c0.84766 0.16406 1.668-0.39062 1.8359-1.2344 0.16406-0.84766-0.39062-1.668-1.2383-1.8359l-9.9492-1.9297c-0.84766-0.16406-1.668 0.39062-1.8359 1.2344-0.16406 0.84766 0.39062 1.668 1.2383 1.8359zm32.188-6.7266 0.32031-2.9336-8.9727-0.98047-0.32031 2.9336z" fill-rule="evenodd"/>
<text x="0.0" y="117.5" font-size="5.0" font-weight="bold" font-family="Arbeit Regular, Helvetica, Arial-Unicode, Arial, Sans-serif" fill="#000000">Created by Firza Alamsyah</text><text x="0.0" y="122.5" font-size="5.0" font-weight="bold" font-family="Arbeit Regular, Helvetica, Arial-Unicode, Arial, Sans-serif" fill="#000000">from Noun Project</text></svg>