<svg xmlns="http://www.w3.org/2000/svg" data-name="Layer 1" viewBox="0 0 512 640" x="0px" y="0px">
    <title>Artboard 66</title>
    <path
        d="M362,60.56H316.29a8,8,0,0,0-8,7.75,25.63,25.63,0,0,1-51.23,0,8,8,0,0,0-8-7.75h-88.8a8,8,0,0,0-8,7.91,25.63,25.63,0,0,1-51.25,0,8,8,0,0,0-8-7.91H46A31.62,31.62,0,0,0,14.46,92.15V393.54A31.62,31.62,0,0,0,46,425.13H362a31.51,31.51,0,0,0,13.94-3.24l2.37,16.49c.05.32.12.64.2.95.22.79.4,1.5.56,2.14,1,3.81,2.35,9,8.21,9.88a8.92,8.92,0,0,0,1.34.1c5.07,0,7.73-4.43,9.9-8.05a8.2,8.2,0,0,0,.57-1.15l87.38-219.39c12.69-21.56,14.63-47.28,5.05-67.27-8.39-17.49-24.26-28.67-44.62-31.48l-5.25-.77,22.09-19.54a8,8,0,1,0-10.6-12l-14.77,13.06L441,85.73a8,8,0,1,0-15.85-2.21l-2.59,18.57-10.48-17a8,8,0,1,0-13.62,8.38l16.23,26.36-5.79-.65a68.91,68.91,0,0,0-15.36-.22V92.15A31.62,31.62,0,0,0,362,60.56ZM30.46,92.15A15.61,15.61,0,0,1,46,76.56H85.87a41.63,41.63,0,0,0,81.53,0H242a41.66,41.66,0,0,0,81.3,0H362a15.61,15.61,0,0,1,15.59,15.59v30.73a54.56,54.56,0,0,0-20.94,15H30.46ZM362,409.13H46a15.6,15.6,0,0,1-15.58-15.59V153.88H346.71c-6,14.17-7,31-2.54,47.79l29.17,202.52A15.55,15.55,0,0,1,362,409.13Zm38.36-274.49a55.07,55.07,0,0,1,6.71.42l18.79,2.12L444.59,140c19.15,2.64,28.22,13.72,32.45,22.55,7.37,15.39,5.58,35.58-4.68,52.71a7.69,7.69,0,0,0-.57,1.15L469.14,223l-25.47-4.46a8,8,0,0,0-2.76,15.77l22.18,3.87L408.35,375.63l-11.84-1.55A8,8,0,0,0,394.45,390l7.79,1-10.75,27-1.8-12.46s0-.07,0-.11l-9.53-66.16,3.22.73a7.73,7.73,0,0,0,1.78.21,8,8,0,0,0,1.77-15.81l-9.21-2.1L371.76,281l19.76,3.45a8.24,8.24,0,0,0,1.39.12,8,8,0,0,0,1.37-15.88l-24.92-4.36-9.42-65.43a8.19,8.19,0,0,0-.2-1,66.13,66.13,0,0,1-2.24-13.81l44.63,7.32a8.15,8.15,0,0,0,1.3.11,8,8,0,0,0,1.29-15.9l-45.87-7.53a45.87,45.87,0,0,1,9.83-19.77C376.45,139.4,387.5,134.64,400.31,134.64Z" />
    <path
        d="M232.57,247.26H176.33a8,8,0,0,0-8,8V302.1a8,8,0,0,0,8,8h56.24a8,8,0,0,0,8-8V255.26A8,8,0,0,0,232.57,247.26Zm-8,46.84H184.33V263.26h40.24Z" />
    <path
        d="M141.85,247.26H85.61a8,8,0,0,0-8,8V302.1a8,8,0,0,0,8,8h56.24a8,8,0,0,0,8-8V255.26A8,8,0,0,0,141.85,247.26Zm-8,46.84H93.61V263.26h40.24Z" />
    <path
        d="M323.29,247.26H267.05a8,8,0,0,0-8,8V302.1a8,8,0,0,0,8,8h56.24a8,8,0,0,0,8-8V255.26A8,8,0,0,0,323.29,247.26Zm-8,46.84H275.05V263.26h40.24Z" />
    <path
        d="M232.57,176.9H176.33a8,8,0,0,0-8,8v46.84a8,8,0,0,0,8,8h56.24a8,8,0,0,0,8-8V184.9A8,8,0,0,0,232.57,176.9Zm-8,46.84H184.33V192.9h40.24Z" />
    <path
        d="M141.85,176.9H85.61a8,8,0,0,0-8,8v46.84a8,8,0,0,0,8,8h56.24a8,8,0,0,0,8-8V184.9A8,8,0,0,0,141.85,176.9Zm-8,46.84H93.61V192.9h40.24Z" />
    <path
        d="M323.29,176.9H267.05a8,8,0,0,0-8,8v46.84a8,8,0,0,0,8,8h56.24a8,8,0,0,0,8-8V184.9A8,8,0,0,0,323.29,176.9Zm-8,46.84H275.05V192.9h40.24Z" />
    <path
        d="M232.57,317.62H176.33a8,8,0,0,0-8,8v46.84a8,8,0,0,0,8,8h56.24a8,8,0,0,0,8-8V325.62A8,8,0,0,0,232.57,317.62Zm-8,46.84H184.33V333.62h40.24Z" />
    <path
        d="M141.85,317.62H85.61a8,8,0,0,0-8,8v46.84a8,8,0,0,0,8,8h56.24a8,8,0,0,0,8-8V325.62A8,8,0,0,0,141.85,317.62Zm-8,46.84H93.61V333.62h40.24Z" />
    <path
        d="M323.29,317.62H267.05a8,8,0,0,0-8,8v46.84a8,8,0,0,0,8,8h56.24a8,8,0,0,0,8-8V325.62A8,8,0,0,0,323.29,317.62Zm-8,46.84H275.05V333.62h40.24Z" />
    <text x="0" y="527" fill="#000000" font-size="5px" font-weight="bold"
        font-family="'Helvetica Neue', Helvetica, Arial-Unicode, Arial, Sans-serif">Created by Sou</text>
    <text x="0" y="532" fill="#000000" font-size="5px" font-weight="bold"
        font-family="'Helvetica Neue', Helvetica, Arial-Unicode, Arial, Sans-serif">from the Noun
        Project</text>
</svg>