<svg xmlns="http://www.w3.org/2000/svg" xmlns:xlink="http://www.w3.org/1999/xlink" version="1.1" x="0px" y="0px" viewBox="-3.2 -6.4 70.4 86.4" enable-background="new 0 0 64 64" xml:space="preserve"><g><path d="M50,4H14c-1.654,0-3,1.346-3,3v50c0,1.654,1.346,3,3,3h36c1.654,0,3-1.346,3-3V7C53,5.346,51.654,4,50,4z M51,57   c0,0.551-0.448,1-1,1H14c-0.552,0-1-0.449-1-1V7c0-0.551,0.448-1,1-1h36c0.552,0,1,0.449,1,1V57z M41.462,27v-4.044   C43.04,21.709,44,19.68,44,17.527c0-3.686-2.727-6.684-6.077-6.684c-0.301,0-0.604,0.025-0.903,0.076C35.896,9.1,34.035,8,32,8   s-3.896,1.1-5.02,2.918c-0.3-0.051-0.603-0.076-0.903-0.076c-3.351,0-6.077,2.999-6.077,6.684c0,2.153,0.96,4.183,2.538,5.43V27   c0,0.552,0.447,1,1,1h16.924C41.015,28,41.462,27.553,41.462,27z M39.462,22.444V26H24.538v-3.556c0-0.339-0.172-0.655-0.456-0.839   C22.798,20.772,22,19.21,22,17.527c0-2.583,1.829-4.684,4.077-4.684c0.367,0,0.739,0.061,1.106,0.181   c0.479,0.158,1.006-0.069,1.218-0.53C29.113,10.956,30.492,10,32,10s2.887,0.955,3.599,2.493c0.213,0.46,0.74,0.688,1.218,0.53   c0.367-0.12,0.739-0.181,1.106-0.181c2.248,0,4.077,2.101,4.077,4.684c0,1.683-0.798,3.246-2.082,4.079   C39.634,21.79,39.462,22.105,39.462,22.444z M19,31c-1.654,0-3,1.346-3,3s1.346,3,3,3s3-1.346,3-3S20.654,31,19,31z M19,35   c-0.552,0-1-0.449-1-1s0.448-1,1-1s1,0.449,1,1S19.552,35,19,35z M19,40c-1.654,0-3,1.346-3,3s1.346,3,3,3s3-1.346,3-3   S20.654,40,19,40z M19,44c-0.552,0-1-0.449-1-1s0.448-1,1-1s1,0.449,1,1S19.552,44,19,44z M19,49c-1.654,0-3,1.346-3,3s1.346,3,3,3   s3-1.346,3-3S20.654,49,19,49z M19,53c-0.552,0-1-0.449-1-1s0.448-1,1-1s1,0.449,1,1S19.552,53,19,53z M48,34c0,0.552-0.447,1-1,1   H26c-0.553,0-1-0.448-1-1s0.447-1,1-1h21C47.553,33,48,33.448,48,34z M48,43c0,0.552-0.447,1-1,1H26c-0.553,0-1-0.448-1-1   s0.447-1,1-1h21C47.553,42,48,42.448,48,43z M48,52c0,0.552-0.447,1-1,1H26c-0.553,0-1-0.448-1-1s0.447-1,1-1h21   C47.553,51,48,51.448,48,52z"/></g><text x="0.0" y="75.2" font-size="3.2" font-weight="bold" font-family="Arbeit Regular, Helvetica, Arial-Unicode, Arial, Sans-serif" fill="#000000">Created by RAHMAT DWI CAHYO</text><text x="0.0" y="78.4" font-size="3.2" font-weight="bold" font-family="Arbeit Regular, Helvetica, Arial-Unicode, Arial, Sans-serif" fill="#000000">from Noun Project</text></svg>