<svg xmlns="http://www.w3.org/2000/svg" version="1.1" viewBox="-5.0 -10.0 110.0 135.0">
 <path d="m60.5 93.898h-50c-0.77344 0-1.3984-0.625-1.3984-1.3984v-72.418c0-0.77344 0.625-1.4023 1.3984-1.4023h12.5c0.77344 0 1.3984 0.62891 1.3984 1.4023 0 0.77344-0.625 1.3984-1.3984 1.3984h-11.102v69.621h47.203v-10.707c0-0.77344 0.625-1.4023 1.3984-1.4023s1.3984 0.62891 1.3984 1.4023v12.105c0 0.37109-0.14453 0.72656-0.41016 0.98828-0.26172 0.26562-0.61719 0.41016-0.98828 0.41016z"/>
 <path d="m60.5 64.48c-0.77344 0-1.3984-0.62891-1.3984-1.4023v-41.602l-11.102 0.003907c-0.77344 0-1.3984-0.62891-1.3984-1.4023s0.625-1.3984 1.3984-1.3984h12.5c0.77344 0 1.3984 0.625 1.3984 1.3984v43c0 0.37109-0.14453 0.72656-0.41016 0.99219-0.26172 0.26172-0.61719 0.41016-0.98828 0.41016z"/>
 <path d="m48 27.48h-25c-0.77344 0-1.3984-0.625-1.3984-1.3984v-12c0-0.77344 0.625-1.4023 1.3984-1.4023h5.4297c0.46875 0 0.89062-0.27344 1.082-0.69922l1.3125-2.8789c0.83594-1.832 2.6641-3.0078 4.6758-3.0078s3.8398 1.1758 4.6758 3.0078l1.3125 2.8789c0.19141 0.42578 0.61328 0.69922 1.082 0.69922h5.4297c0.77344 0 1.3984 0.62891 1.3984 1.4023v12c0 0.37109-0.14453 0.72656-0.41016 0.98828-0.26172 0.26172-0.61719 0.41016-0.98828 0.41016zm-23.602-2.8008h22.203v-9.1992h-4.0312c-1.5625-0.003907-2.9805-0.91406-3.6289-2.332l-1.3125-2.8789c-0.37891-0.83594-1.2109-1.3711-2.1289-1.3711s-1.75 0.53516-2.1289 1.3711l-1.3125 2.8789c-0.64844 1.418-2.0664 2.3281-3.6289 2.332h-4.0312z"/>
 <path d="m25 42.266h-7.5c-0.77344 0-1.3984-0.62891-1.3984-1.4023v-7.5c0-0.76953 0.625-1.3984 1.3984-1.3984h7.5c0.77344 0 1.3984 0.62891 1.3984 1.3984v7.5c0 0.37109-0.14453 0.73047-0.41016 0.99219-0.26172 0.26172-0.61719 0.41016-0.98828 0.41016zm-6.1016-2.8008h4.6992v-4.6992h-4.6992z"/>
 <path d="m25 57.051h-7.5c-0.77344 0-1.3984-0.62891-1.3984-1.4023v-7.5c0-0.77344 0.625-1.3984 1.3984-1.3984h7.5c0.77344 0 1.3984 0.625 1.3984 1.3984v7.5c0 0.37109-0.14453 0.72656-0.41016 0.99219-0.26172 0.26172-0.61719 0.41016-0.98828 0.41016zm-6.1016-2.8008h4.6992v-4.6992h-4.6992z"/>
 <path d="m25 71.832h-7.5c-0.77344 0-1.3984-0.625-1.3984-1.3984v-7.5c0-0.77344 0.625-1.4023 1.3984-1.4023h7.5c0.77344 0 1.3984 0.62891 1.3984 1.4023v7.5c0 0.37109-0.14453 0.72656-0.41016 0.98828-0.26172 0.26172-0.61719 0.41016-0.98828 0.41016zm-6.1016-2.8008h4.6992v-4.6992h-4.6992z"/>
 <path d="m25 86.617h-7.5c-0.77344 0-1.3984-0.62891-1.3984-1.4023v-7.5c0-0.77344 0.625-1.3984 1.3984-1.3984h7.5c0.77344 0 1.3984 0.625 1.3984 1.3984v7.5c0 0.37109-0.14453 0.73047-0.41016 0.99219-0.26172 0.26172-0.61719 0.41016-0.98828 0.41016zm-6.1016-2.8008h4.6992v-4.6992h-4.6992z"/>
 <path d="m54.211 35.516h-22.922c-0.77344 0-1.4023-0.62891-1.4023-1.4023 0-0.76953 0.62891-1.3984 1.4023-1.3984h22.922c0.77344 0 1.4023 0.62891 1.4023 1.3984 0 0.77344-0.62891 1.4023-1.4023 1.4023z"/>
 <path d="m44.211 41.516h-12.922c-0.77344 0-1.4023-0.62891-1.4023-1.4023 0-0.76953 0.62891-1.3984 1.4023-1.3984h12.922c0.77344 0 1.4023 0.62891 1.4023 1.3984 0 0.77344-0.62891 1.4023-1.4023 1.4023z"/>
 <path d="m54.211 50.301h-22.922c-0.77344 0-1.4023-0.62891-1.4023-1.4023 0-0.77344 0.62891-1.3984 1.4023-1.3984h22.922c0.77344 0 1.4023 0.625 1.4023 1.3984 0 0.77344-0.62891 1.4023-1.4023 1.4023z"/>
 <path d="m44.211 56.301h-12.922c-0.77344 0-1.4023-0.62891-1.4023-1.4023 0-0.77344 0.62891-1.3984 1.4023-1.3984h12.922c0.77344 0 1.4023 0.625 1.4023 1.3984 0 0.77344-0.62891 1.4023-1.4023 1.4023z"/>
 <path d="m49.211 65.082h-17.922c-0.77344 0-1.4023-0.625-1.4023-1.3984 0-0.77344 0.62891-1.4023 1.4023-1.4023h17.922c0.77344 0 1.4023 0.62891 1.4023 1.4023 0 0.77344-0.62891 1.3984-1.4023 1.3984z"/>
 <path d="m44.211 71.082h-12.922c-0.77344 0-1.4023-0.625-1.4023-1.3984 0-0.77344 0.62891-1.4023 1.4023-1.4023h12.922c0.77344 0 1.4023 0.62891 1.4023 1.4023 0 0.77344-0.62891 1.3984-1.4023 1.3984z"/>
 <path d="m49.211 79.867h-17.922c-0.77344 0-1.4023-0.62891-1.4023-1.4023 0-0.77344 0.62891-1.3984 1.4023-1.3984h17.922c0.77344 0 1.4023 0.625 1.4023 1.3984 0 0.77344-0.62891 1.4023-1.4023 1.4023z"/>
 <path d="m44.211 85.867h-12.922c-0.77344 0-1.4023-0.62891-1.4023-1.4023 0-0.77344 0.62891-1.3984 1.4023-1.3984h12.922c0.77344 0 1.4023 0.625 1.4023 1.3984 0 0.77344-0.62891 1.4023-1.4023 1.4023z"/>
 <path d="m85.129 80.09h-24.973c-0.62891 0-1.1797-0.41797-1.3477-1.0234l-4.3711-15.609c-0.12109-0.42188-0.035156-0.875 0.23047-1.2227 0.26562-0.35156 0.67969-0.55469 1.1172-0.55469h33.715c0.4375 0 0.85156 0.20312 1.1133 0.55469 0.26562 0.34766 0.35156 0.80078 0.23438 1.2227l-4.3711 15.609c-0.16797 0.60547-0.71875 1.0234-1.3477 1.0234zm-23.91-2.8008h22.848l3.5859-12.809h-30.023z"/>
 <path d="m85.129 84.461h-20.602c-3.1836-0.003907-5.7656-2.5859-5.7695-5.7734 0-0.77344 0.62891-1.3984 1.4023-1.3984h10.082c0.77344 0 1.4023 0.625 1.4023 1.3984s-0.62891 1.4023-1.4023 1.4023h-8.3359c0.51562 0.96484 1.5234 1.5664 2.6172 1.5703h20.602c0.77344 0 1.3984 0.625 1.3984 1.3984 0 0.77344-0.625 1.4023-1.3984 1.4023z"/>
 <path d="m67.492 93.898c-1.6758 0-3.1914-1.0078-3.832-2.5586-0.64453-1.5508-0.28906-3.3359 0.89844-4.5234s2.9727-1.543 4.5234-0.90234c1.5508 0.64453 2.5625 2.1562 2.5625 3.8359-0.003906 2.2891-1.8594 4.1484-4.1523 4.1484zm0-5.5c-0.54297 0-1.0352 0.33203-1.2461 0.83594-0.20703 0.50391-0.09375 1.0859 0.29297 1.4688 0.38672 0.38672 0.96875 0.50391 1.4727 0.29297 0.50391-0.20703 0.83203-0.69922 0.83203-1.2461 0-0.74609-0.60547-1.3477-1.3516-1.3516z"/>
 <path d="m79.789 93.898c-1.6758 0-3.1914-1.0078-3.832-2.5586-0.64453-1.5508-0.28906-3.3359 0.89844-4.5234s2.9727-1.543 4.5234-0.90234c1.5508 0.64453 2.5625 2.1562 2.5625 3.8359-0.003906 2.2891-1.8594 4.1484-4.1523 4.1484zm0-5.5c-0.54687 0-1.0391 0.33203-1.2461 0.83594-0.21094 0.50391-0.09375 1.0859 0.29297 1.4688 0.38672 0.38672 0.96484 0.50391 1.4688 0.29297 0.50781-0.20703 0.83594-0.69922 0.83594-1.2461 0-0.74609-0.60547-1.3477-1.3516-1.3516z"/>
 <path d="m87.316 72.281h-29.348c-0.77344 0-1.3984-0.625-1.3984-1.3984 0-0.77344 0.625-1.3984 1.3984-1.3984h29.348c0.77344 0 1.3984 0.625 1.3984 1.3984 0 0.77344-0.625 1.3984-1.3984 1.3984z"/>
 <path d="m55.785 64.48c-0.62109 0-1.1641-0.41016-1.3438-1l-1.5742-5.2461h-3.3672v-2.8008h4.4102c0.62109 0 1.1641 0.40625 1.3438 1l1.8711 6.2422c0.125 0.42578 0.046875 0.88281-0.21875 1.2383-0.26562 0.35547-0.67969 0.5625-1.1211 0.5625z"/>
 <path d="m76.805 80.09c-0.042969 0-0.085938-0.003906-0.13281-0.007813h0.003906c-0.76953-0.074219-1.3359-0.75391-1.2656-1.5234l1.457-15.609c0.035156-0.37109 0.21484-0.71094 0.5-0.94922 0.28516-0.23438 0.65234-0.34766 1.0234-0.31641 0.76953 0.074218 1.3359 0.75391 1.2656 1.5273l-1.457 15.605c-0.066407 0.72266-0.67188 1.2734-1.3945 1.2734z"/>
 <path d="m68.477 80.09c-0.71875-0.003906-1.3242-0.55469-1.3906-1.2734l-1.457-15.605c-0.070312-0.77344 0.49609-1.4531 1.2656-1.5273 0.76953-0.070313 1.4492 0.49609 1.5234 1.2656l1.457 15.609c0.035156 0.36719-0.082031 0.73828-0.31641 1.0234-0.23828 0.28516-0.57812 0.46484-0.94922 0.5-0.042969 0.003907-0.089844 0.007813-0.13281 0.007813z"/>
<text x="0.0" y="117.5" font-size="5.0" font-weight="bold" font-family="Arbeit Regular, Helvetica, Arial-Unicode, Arial, Sans-serif" fill="#000000">Created by Qadeer Hussain</text><text x="0.0" y="122.5" font-size="5.0" font-weight="bold" font-family="Arbeit Regular, Helvetica, Arial-Unicode, Arial, Sans-serif" fill="#000000">from Noun Project</text></svg>